<svg version="1.1" id="Layer" xmlns="http://www.w3.org/2000/svg" xmlns:xlink="http://www.w3.org/1999/xlink" x="0px" y="0px"
	 width="612px" height="792px" viewBox="0 0 612 792" enable-background="new 0 0 612 792" xml:space="preserve">
	<g>
		
			<ellipse transform="matrix(1 -0.0054 0.0054 1 -3.1673 2.0026)" fill="#F2F2F2" cx="369.729" cy="588.277" rx="59.664" ry="34.445"/>
		<g>
			<g>
				<path fill="#F2F2F2" d="M165.019,597.602l132.117-76.251c2.827-1.633,2.474-4.484-0.792-6.369l-7.501-4.331
					c-3.266-1.885-8.204-2.089-11.033-0.457l-132.117,76.25c-2.827,1.633-2.474,4.484,0.792,6.37l7.501,4.33
					C157.251,599.029,162.19,599.234,165.019,597.602z"/>
				<path fill="#999999" d="M152.024,222.976l121.571-70.189c2.282-1.318,4.344-1.356,5.948-0.444l11.993,6.938l-14.118,10.978
					l-3.451-0.875v288.09c0,6.757-4.107,14.606-9.175,17.531l-106.595,78.025v4.81l-12.408-7.244l0.002-0.049
					c-1.8-1.194-2.941-3.695-2.941-7.232V240.507C142.848,233.75,146.957,225.901,152.024,222.976z"/>
				<path fill="#E6E6E6" d="M170.614,248.695v-13.596l11.955,8.982l52.249-21.897l39.148-28.494v-24.313l3.469,0.867l14.092-10.963
					l-11.986-6.938c-1.611-0.898-3.655-0.868-5.946,0.433L152.03,222.989c-3.345,1.92-6.256,5.977-7.836,10.438L170.614,248.695z"/>
				<g>
					<path fill="#CCCCCC" d="M164.091,557.288l121.571-70.189c5.067-2.926,9.175-10.774,9.175-17.531V166.758
						c0-6.756-4.107-9.862-9.175-6.937l-121.571,70.189c-5.067,2.927-9.176,10.775-9.176,17.531V550.35
						C154.915,557.106,159.023,560.213,164.091,557.288z"/>
					<path fill="#333333" d="M292.156,471.354V168.067c0-4.924-2.994-7.189-6.687-5.055l-121.185,69.965
						c-3.694,2.132-6.688,7.854-6.688,12.777v303.288c0,4.924,2.994,7.187,6.688,5.056l121.185-69.966
						C289.162,481.999,292.156,476.278,292.156,471.354z"/>
					<path fill="#80C5FF" d="M161.152,248.973v293.78c0,4.371,3.085,6.098,6.867,3.915l113.699-65.644
						c3.807-2.199,6.895-7.521,6.895-11.891V175.385c0-4.368-3.086-6.128-6.895-3.93l-20.771,11.993
						c-0.867,0.501-1.63,1.599-1.869,2.694l-0.962,4.389c-0.724,4.205-4.023,8.879-7.886,11.109l-50.694,29.269
						c-3.861,2.23-7.188,1.379-7.886-2.004l-0.962-3.278c-0.24-0.817-1.003-1.036-1.869-0.535l-20.799,12.007
						C164.237,239.283,161.152,244.604,161.152,248.973z"/>
					<g>
						<path fill="#57B2FF" d="M186.648,321.898c-1.991,1.149-3.595,3.928-3.589,6.224l0.036,12.436
							c0.006,2.288,1.62,3.217,3.611,2.066l72.896-42.086c1.991-1.149,3.595-3.936,3.589-6.224l-0.035-12.436
							c-0.006-2.296-1.621-3.217-3.612-2.067L186.648,321.898z"/>
					</g>
					<g>
						<path fill="#57B2FF" d="M186.648,365.397c-1.991,1.149-3.595,3.935-3.589,6.224l0.036,12.444
							c0.007,2.289,1.62,3.208,3.611,2.059l72.896-42.086c1.991-1.149,3.595-3.928,3.589-6.215l-0.035-12.444
							c-0.006-2.289-1.621-3.217-3.612-2.067L186.648,365.397z"/>
					</g>
					<g>
						<polygon fill="#B3B3B3" points="288.602,356.706 288.602,377.756 294.843,374.151 294.843,353.101 						"/>
						<path fill="#57B2FF" d="M183.048,423.184l0.028,9.928c0.028,3.051,2.19,4.299,4.853,2.774l100.673-58.129v-21.05
							l-100.728,58.13C185.212,416.389,183.048,420.105,183.048,423.184z"/>
					</g>
					<g>
						<path fill="#57B2FF" d="M241.616,439.444c-1.919,1.108-3.473,3.8-3.467,6.004l0.097,34.084c0.007,2.205,1.57,3.088,3.49,1.98
							l29.661-17.125c1.919-1.108,3.465-3.786,3.459-5.992l-0.097-34.083c-0.006-2.206-1.563-3.101-3.482-1.993L241.616,439.444z"/>
					</g>
					<g>
						<path fill="#57B2FF" d="M186.519,471.196c-1.919,1.109-3.465,3.795-3.459,6l0.097,34.084c0.007,2.205,1.563,3.092,3.481,1.983
							l29.661-17.125c1.919-1.107,3.473-3.79,3.467-5.996l-0.097-34.083c-0.007-2.206-1.57-3.097-3.489-1.989L186.519,471.196z"/>
					</g>
					<g>
						<path fill="#57B2FF" d="M188.647,253.925c-3.096,1.787-5.599,6.123-5.588,9.687l0.084,29.175
							c0.01,3.557,2.528,4.993,5.624,3.206l84.187-48.605c3.096-1.787,5.599-6.122,5.588-9.678l-0.083-29.175
							c-0.01-3.565-2.529-5-5.625-3.213L188.647,253.925z"/>
					</g>
					<g>
						<polygon fill="#B3B3B3" points="288.602,265.629 288.602,322.788 294.843,319.183 294.843,262.023 						"/>
						<path fill="#57B2FF" d="M279.283,276.584l0.139,45.955c0,3.05,2.163,4.271,4.854,2.746l4.326-2.496V265.63l-4.493,2.607
							C281.419,269.79,279.283,273.533,279.283,276.584z"/>
					</g>
					<g>
						<path fill="#666666" d="M245.594,197.383c0,2.338,1.651,3.279,3.688,2.103c2.036-1.176,3.688-4.024,3.688-6.361
							c0-2.338-1.651-3.279-3.688-2.103C247.245,192.197,245.594,195.045,245.594,197.383z"/>
						<path fill="#333333" d="M247.261,196.421c0,1.28,0.905,1.797,2.021,1.153c1.116-0.645,2.021-2.206,2.021-3.486
							c0-1.282-0.904-1.797-2.021-1.152C248.166,193.579,247.261,195.139,247.261,196.421z"/>
					</g>
					<path d="M207.163,214.377l36.07-20.825c0.595-0.343,1.075-1.263,1.075-2.055v-1.46c0-0.792-0.48-1.156-1.075-0.813
						l-36.07,20.825c-0.595,0.343-1.076,1.263-1.076,2.055v1.459C206.087,214.356,206.568,214.72,207.163,214.377z"/>
				</g>
				<g>
					<g enable-background="new    ">
						<path fill="#E6E6E6" d="M146.218,287.174c0.715-0.417,1.706-0.356,2.8,0.275c2.176,1.256,3.93,4.295,3.922,6.793
							l-0.102,35.992c-0.003,1.234-0.442,2.108-1.151,2.519l-2.183,1.268c0.709-0.411,1.148-1.286,1.152-2.519l0.103-35.992
							c0.007-2.5-1.747-5.537-3.922-6.793c-1.095-0.632-2.086-0.69-2.801-0.275L146.218,287.174z"/>
						<g>
							<path fill="#BFBFBF" d="M146.836,288.719c-2.176-1.256-3.941-0.25-3.947,2.25l-0.102,35.992
								c-0.008,2.477,1.746,5.537,3.921,6.793c2.176,1.256,3.94,0.227,3.948-2.25l0.102-35.992
								C150.765,293.013,149.011,289.975,146.836,288.719z"/>
						</g>
						<g>
							<path fill="#CCCCCC" d="M146.195,292.764c-1.784-1.031-3.232-0.205-3.238,1.846l-0.083,29.524
								c-0.005,2.032,1.433,4.542,3.218,5.573c1.784,1.03,3.232,0.186,3.238-1.846l0.083-29.524
								C149.418,296.288,147.979,293.795,146.195,292.764z"/>
						</g>
					</g>
				</g>
			</g>
			<g>
				<g enable-background="new    ">
					<path fill="#8482FF" d="M298.629,193.932l29.661-17.125c0.964-0.557,1.836-0.608,2.466-0.241l5.576,3.24
						c-0.631-0.366-1.504-0.314-2.468,0.241l-29.661,17.125c-1.919,1.107-3.473,3.799-3.467,6.003l0.097,34.083
						c0.002,1.093,0.39,1.862,1.011,2.223l-5.576-3.24c-0.621-0.362-1.008-1.13-1.011-2.224l-0.097-34.084
						C295.156,197.731,296.71,195.04,298.629,193.932z"/>
					<g>
						<path fill="#4D4BB7" d="M304.204,197.172c-1.919,1.107-3.473,3.799-3.466,6.003l0.097,34.083
							c0.006,2.206,1.57,3.088,3.488,1.98l29.663-17.125c1.919-1.107,3.465-3.786,3.459-5.991l-0.097-34.083
							c-0.006-2.206-1.563-3.101-3.482-1.993L304.204,197.172z"/>
					</g>
					<g>
						<g>
							<path fill="#FFFFFF" d="M321.213,211.416l2.785,7.479l11.61-6.702l-7.207-10.167c-1.013-1.427-3.542,0.035-4.555,2.629
								L321.213,211.416z"/>
							<polygon fill="#E6E6E6" points="316.639,223.146 323.998,218.896 321.213,211.416 							"/>
							<path fill="#FFFFFF" d="M305.029,229.848l11.609-6.703l4.574-11.729l-3.523-9.446c-1.056-2.829-5.293-0.382-6.35,3.666
								L305.029,229.848z"/>
						</g>
						<path fill="#E6E6E6" d="M321.159,198.122c0,1.643,1.16,2.304,2.593,1.478c1.432-0.826,2.592-2.829,2.592-4.472
							s-1.16-2.303-2.592-1.477C322.319,194.478,321.159,196.479,321.159,198.122z"/>
					</g>
				</g>
			</g>
			<g>
				<g enable-background="new    ">
					<path fill="#8482FF" d="M189.509,323.626l72.896-42.086c1.002-0.578,1.907-0.633,2.561-0.252l5.575,3.24
						c-0.653-0.38-1.559-0.326-2.561,0.252l-72.895,42.086c-1.992,1.149-3.596,3.928-3.589,6.224l0.035,12.436
						c0.004,1.14,0.405,1.941,1.053,2.318l-5.575-3.24c-0.647-0.377-1.049-1.179-1.053-2.317l-0.035-12.436
						C185.914,327.554,187.518,324.777,189.509,323.626z"/>
					<g>
						<path fill="#4D4BB7" d="M195.085,326.866c-1.992,1.149-3.596,3.928-3.589,6.224l0.035,12.436
							c0.006,2.289,1.62,3.217,3.612,2.067l72.895-42.086c1.992-1.149,3.596-3.935,3.589-6.224l-0.035-12.436
							c-0.006-2.296-1.62-3.216-3.612-2.066L195.085,326.866z"/>
					</g>
					<path fill="#FFFFFF" d="M197.504,334.48l66.854-38.787c0.766-0.442,1.387,0.027,1.387,1.048l0,0
						c0,1.021-0.621,2.207-1.387,2.648l-66.854,38.787c-0.765,0.442-1.385-0.027-1.385-1.047l0,0
						C196.119,336.108,196.739,334.922,197.504,334.48z"/>
				</g>
			</g>
			<g>
				<g enable-background="new    ">
					<path fill="#8482FF" d="M189.509,367.127l72.896-42.086c1-0.578,1.906-0.63,2.56-0.251l5.575,3.24
						c-0.653-0.381-1.56-0.327-2.56,0.25l-72.895,42.086c-1.992,1.149-3.596,3.936-3.589,6.224l0.035,12.445
						c0.004,1.137,0.402,1.935,1.049,2.311l-5.575-3.24c-0.646-0.376-1.047-1.174-1.049-2.311l-0.035-12.444
						C185.914,371.062,187.518,368.276,189.509,367.127z"/>
					<g>
						<path fill="#4D4BB7" d="M195.085,370.367c-1.992,1.149-3.596,3.936-3.589,6.224l0.035,12.445
							c0.006,2.288,1.62,3.208,3.612,2.059l72.895-42.086c1.992-1.149,3.596-3.928,3.589-6.215l-0.035-12.445
							c-0.006-2.288-1.62-3.216-3.612-2.066L195.085,370.367z"/>
					</g>
					<path fill="#FFFFFF" d="M197.504,377.283l66.854-38.788c0.766-0.442,1.387,0.027,1.387,1.048l0,0
						c0,1.021-0.621,2.207-1.387,2.649l-66.854,38.787c-0.765,0.442-1.385-0.027-1.385-1.048l0,0
						C196.119,378.911,196.739,377.725,197.504,377.283z"/>
				</g>
			</g>
			<g>
				<g enable-background="new    ">
					<path fill="#8482FF" d="M298.629,409.967l29.661-17.125c0.964-0.557,1.836-0.608,2.466-0.241l5.576,3.24
						c-0.631-0.366-1.504-0.316-2.468,0.241l-29.661,17.125c-1.919,1.109-3.473,3.799-3.467,6.004l0.097,34.083
						c0.002,1.094,0.39,1.862,1.011,2.223l-5.576-3.239c-0.621-0.362-1.008-1.13-1.011-2.225l-0.097-34.083
						C295.156,413.766,296.71,411.074,298.629,409.967z"/>
					<g>
						<path fill="#4D4BB7" d="M304.204,413.207c-1.919,1.109-3.473,3.799-3.466,6.004l0.097,34.083
							c0.006,2.206,1.57,3.089,3.488,1.98l29.663-17.125c1.919-1.107,3.465-3.785,3.459-5.991l-0.097-34.084
							c-0.006-2.205-1.563-3.1-3.482-1.992L304.204,413.207z"/>
					</g>
					<g>
						<path fill="#FFFFFF" d="M305.176,424.786v0.049l14.131,1.187l14.342-17.674l0,0c0-0.555-0.392-0.778-0.875-0.5l-26.722,15.43
							C305.569,423.556,305.176,424.231,305.176,424.786z"/>
						<path fill="#FFFFFF" d="M319.307,427.143l-14.131-1.191v17.205c0,0.554,0.392,0.778,0.875,0.499l26.722-15.429
							c0.483-0.279,0.875-0.955,0.875-1.511v-17.258l-14.131,17.421L319.307,427.143z"/>
					</g>
				</g>
			</g>
			<g>
				<g enable-background="new    ">
					<path fill="#8482FF" d="M190.732,416.572l131.973-76.196c1.34-0.773,2.557-0.847,3.436-0.336l5.575,3.24
						c-0.878-0.51-2.095-0.438-3.436,0.336l-131.973,76.195c-2.67,1.541-4.82,5.266-4.812,8.333l0.027,9.933
						c0.006,1.526,0.543,2.6,1.41,3.105l-5.575-3.24c-0.867-0.504-1.405-1.578-1.41-3.104l-0.027-9.933
						C185.912,421.838,188.062,418.113,190.732,416.572z"/>
					<g>
						<path fill="#4D4BB7" d="M196.308,419.812c-2.67,1.541-4.82,5.266-4.812,8.333l0.027,9.933c0.009,3.067,2.173,4.31,4.844,2.768
							L328.34,364.65c2.662-1.538,4.82-5.274,4.813-8.342l-0.029-9.933c-0.008-3.067-2.18-4.296-4.842-2.76L196.308,419.812z"/>
					</g>
					<path fill="#FFFFFF" d="M199.786,427.302l127.032-73.787c0.767-0.442,1.387,0.027,1.387,1.049l0,0
						c0,1.021-0.62,2.207-1.387,2.649l-127.032,73.785c-0.766,0.441-1.387-0.027-1.387-1.049l0,0
						C198.399,428.93,199.02,427.743,199.786,427.302z"/>
				</g>
			</g>
			<g>
				<g enable-background="new    ">
					<path fill="#8482FF" d="M244.477,441.173l29.661-17.125c0.965-0.557,1.836-0.607,2.468-0.241l5.575,3.24
						c-0.63-0.366-1.503-0.314-2.467,0.241l-29.662,17.125c-1.919,1.107-3.473,3.798-3.466,6.004l0.097,34.083
						c0.003,1.093,0.389,1.862,1.011,2.224l-5.575-3.239c-0.622-0.361-1.009-1.13-1.012-2.225l-0.097-34.083
						C241.004,444.973,242.558,442.282,244.477,441.173z"/>
					<g>
						<path fill="#4D4BB7" d="M250.052,444.414c-1.919,1.107-3.473,3.798-3.466,6.004l0.097,34.083
							c0.006,2.206,1.57,3.089,3.489,1.98l29.661-17.125c1.919-1.107,3.465-3.785,3.459-5.991l-0.097-34.083
							c-0.006-2.206-1.563-3.101-3.48-1.993L250.052,444.414z"/>
					</g>
					<g>
						<g>
							<path fill="#FFFFFF" d="M252.713,475.05l24.498-14.145c1.479-0.854,2.681-2.928,2.681-4.625v-13.5
								c0-1.696-1.203-2.382-2.681-1.529l-24.498,14.145c-1.479,0.854-2.681,2.928-2.681,4.623v13.501
								C250.032,475.219,251.234,475.904,252.713,475.05z M277.211,442.535c0.862-0.498,1.563-0.098,1.563,0.893v13.499
								c0,0.99-0.701,2.2-1.563,2.698l-24.498,14.145c-0.861,0.497-1.564,0.098-1.564-0.893v-13.501
								c0-0.988,0.701-2.199,1.564-2.696L277.211,442.535z"/>
						</g>
						<g>
							<path fill="#FFFFFF" d="M264.962,465.777c3.592-2.074,6.515-7.116,6.515-11.238s-2.923-5.79-6.515-3.715
								c-3.593,2.074-6.516,7.115-6.516,11.238S261.369,467.853,264.962,465.777z M264.962,452.106
								c2.977-1.718,5.398-0.337,5.398,3.077c0,3.417-2.422,7.594-5.398,9.313c-2.978,1.719-5.398,0.338-5.398-3.078
								C259.563,458.003,261.984,453.825,264.962,452.106z"/>
						</g>
						<g>
							<path fill="#FFFFFF" d="M257.227,453.839l15.471-8.932v-3.236c0-1.112-0.79-1.563-1.759-1.004l-11.951,6.9
								c-0.97,0.561-1.759,1.922-1.759,3.034v3.237H257.227z M271.58,444.27l-13.235,7.642v-1.955c0-0.406,0.287-0.903,0.643-1.107
								l11.951-6.899c0.354-0.205,0.643-0.041,0.643,0.366L271.58,444.27L271.58,444.27z"/>
						</g>
					</g>
				</g>
			</g>
			<g>
				<g enable-background="new    ">
					<path fill="#8482FF" d="M189.38,472.926l29.662-17.125c0.966-0.558,1.841-0.608,2.474-0.241l5.575,3.24
						c-0.633-0.367-1.508-0.315-2.474,0.241l-29.661,17.125c-1.919,1.107-3.465,3.794-3.459,6l0.097,34.083
						c0.004,1.096,0.389,1.866,1.011,2.229l-5.575-3.24c-0.623-0.362-1.009-1.132-1.011-2.228l-0.097-34.084
						C185.914,476.721,187.46,474.033,189.38,472.926z"/>
					<g>
						<path fill="#4D4BB7" d="M194.955,476.166c-1.92,1.107-3.466,3.794-3.459,6l0.097,34.083c0.006,2.206,1.563,3.092,3.482,1.984
							l29.661-17.125c1.919-1.107,3.472-3.789,3.466-5.995l-0.097-34.083c-0.006-2.206-1.57-3.097-3.488-1.988L194.955,476.166z"/>
					</g>
					<path fill="#FFFFFF" d="M209.719,475.423c6.779-3.914,12.275-1.869,12.275,4.566c0,4.168-2.313,9.149-5.778,13.211
						c0.161,1.087,0.866,3.367,3.968,1.616c0,0-4.281,4.721-8.339,2.5c-0.691,0.515-1.399,0.994-2.126,1.414
						c-6.78,3.914-12.275,1.869-12.275-4.567C197.443,487.728,202.938,479.337,209.719,475.423z"/>
				</g>
			</g>
			<g>
				<g enable-background="new    ">
					<path fill="#8482FF" d="M191.508,255.655l84.187-48.605c1.558-0.898,2.969-0.983,3.987-0.391l5.575,3.24
						c-1.02-0.592-2.431-0.508-3.987,0.391l-84.187,48.606c-3.095,1.787-5.599,6.122-5.587,9.687l0.083,29.175
						c0.005,1.768,0.629,3.011,1.635,3.595l-5.575-3.24c-1.006-0.585-1.63-1.828-1.635-3.595l-0.083-29.175
						C185.909,261.777,188.412,257.442,191.508,255.655z"/>
					<g>
						<path fill="#4D4BB7" d="M197.083,258.895c-3.095,1.787-5.599,6.123-5.587,9.687l0.083,29.175
							c0.01,3.557,2.528,4.993,5.624,3.206l84.187-48.605c3.096-1.787,5.598-6.123,5.588-9.679l-0.083-29.175
							c-0.01-3.565-2.529-5-5.625-3.213L197.083,258.895z"/>
					</g>
					<g>
						<path fill="#FFFFFF" d="M199.199,265.898l79.378-46.015c0.765-0.442,1.387,0.027,1.387,1.047l0,0
							c0,1.021-0.62,2.207-1.387,2.649l-79.378,46.015c-0.766,0.442-1.387-0.027-1.387-1.048l0,0
							C197.813,267.526,198.434,266.34,199.199,265.898z"/>
						<path fill="#FFFFFF" d="M199.199,276.917l79.378-46.015c0.765-0.442,1.387,0.027,1.387,1.048l0,0
							c0,1.021-0.62,2.207-1.387,2.649l-79.378,46.015c-0.766,0.442-1.387-0.027-1.387-1.047l0,0
							C197.813,278.545,198.434,277.359,199.199,276.917z"/>
						<path fill="#FFFFFF" d="M199.199,287.936l79.378-46.015c0.765-0.442,1.387,0.027,1.387,1.048l0,0
							c0,1.021-0.62,2.207-1.387,2.649l-79.378,46.015c-0.766,0.442-1.387-0.027-1.387-1.048l0,0
							C197.813,289.563,198.434,288.377,199.199,287.936z"/>
					</g>
				</g>
			</g>
		</g>
		<g>
			<g>
				<path fill="#FFB78C" d="M327.66,266.951c0.082-0.263,0.214-0.512,0.25-0.785c0.038-0.284-0.029-0.571-0.036-0.858
					c-0.015-0.637,0.292-1.271,0.802-1.655c0.201-0.152,0.434-0.267,0.602-0.456c0.16-0.177,0.249-0.405,0.376-0.607
					c0.624-0.993,1.994-1.172,3.161-1.071c2.423,0.21,4.721,1.182,6.836,2.38c2.879,1.632,5.548,3.75,7.371,6.512
					c0.715,1.081,1.291,2.249,1.767,3.452c0.419,1.058,0.762,2.144,1.063,3.24c0.201,0.728,0.465,1.44,0.621,2.182
					c0.07,0.34,0.123,0.698,0.145,1.043c0.02,0.329-0.028,0.649,0.17,0.939c0.24,0.35,22.789,28.541,24.389,30.53
					c1.41,1.754,2.551,3.921,4.195,5.431c3.428,3.145,7.877,5.408,12.027,7.423c3.375,1.639,9.355,3.123,7.865,8.288
					c-0.439,1.524-1.699,2.641-2.788,3.795c-1.847,1.956-3.337,4.245-4.38,6.724c-0.063,0.148-0.133,0.308-0.273,0.383
					c-0.201,0.106-0.443-0.001-0.645-0.107c-5.881-3.137-21.973-14.495-24.699-16.149c-0.002-0.086,0.014-0.17,0.014-0.256
					c-0.824-0.409-1.46-1.168-2.02-1.922c-1.984-2.667-3.846-5.423-5.607-8.242c-1.762-2.82-3.424-5.702-5.011-8.622
					c-1.591-2.927-3.11-5.894-4.585-8.88c-1.477-2.99-4.896-10.226-5.179-10.829c-0.212-0.452-0.335-1.132-0.83-1.37
					c-0.317-0.152-0.682-0.147-1.005-0.318c-0.365-0.192-0.686-0.462-0.986-0.741c-3.281-3.038-5.124-7.283-7.707-10.935
					c-0.46-0.651-0.951-1.292-1.568-1.796c-1.17-0.958-2.789-1.435-3.58-2.722c-0.321-0.521-0.471-1.126-0.615-1.72
					C327.615,268.482,327.435,267.688,327.66,266.951z"/>
				<path fill="#4D4BB7" d="M414.412,596.396c-0.172,2.04-0.799,3.927-2.353,5.003c-0.897,0.62-2.019,0.829-3.109,0.871
					c-2.986,0.117-6.003-0.933-8.271-2.876c-2.561-2.194-4.14-5.411-6.869-7.392c-1.454-1.056-3.155-1.698-4.794-2.434
					c-4.056-1.818-7.829-4.265-11.146-7.222c-0.717-0.64-1.571-1.43-1.922-2.351c-0.563-1.485,0.029-3.161,1.337-3.969
					c0.806-0.497,1.743-0.733,2.673-0.899c3.317-0.593,6.723-0.381,10.079-0.076c4.269,0.388,8.573,0.936,12.583,2.447
					c1.744,0.655,3.422,1.5,4.957,2.558c0.58,0.399,1.42,1.413,2.109,1.535c0.248,0.044,1.888-0.532,1.857-0.631
					c0.941,2.98,1.885,5.974,2.404,9.056C414.242,591.753,414.601,594.167,414.412,596.396z"/>
				<path fill="#333333" d="M383.462,438.126c0.164-1.162,0.764-2.209,1.31-3.248c3.695-7.033,5.373-14.868,8.051-22.298
					c1.292-3.585,2.813-7.115,4.919-10.305c1.243-1.887,4.688-6.929,7.644-5.875c0.422,0.15,0.76,0.467,1.084,0.778
					c5.413,5.229,9.901,11.409,13.239,18.153c3.409,6.888,4.96,13.468,4.98,21.15c0.017,5.709-0.846,11.425-2.636,16.85
					c-0.631,1.916-1.371,3.805-1.766,5.781c-0.418,2.089-0.441,4.233-0.464,6.363c-0.087,8.296-0.174,16.593-0.261,24.889
					c-0.041,3.813-0.048,7.641-0.316,11.42c-0.268,3.782-0.332,7.88,0.742,11.546c1.13,3.858,1.867,7.836,2.353,11.824
					c1.275,10.491-0.938,21.058-3.138,31.395c-1.982,9.318-3.967,18.637-5.949,27.955c-0.116,0.543-0.247,1.117-0.635,1.515
					c-0.308,0.316-0.738,0.478-1.162,0.599c-2.555,0.729-5.34,0.281-7.77-0.792c-2.432-1.073-4.553-2.735-6.547-4.49
					c-0.525-0.463-1.056-0.949-1.374-1.573c-0.79-1.556-0.054-3.412,0.606-5.027c5.926-14.455,5.469-30.87,1.872-46.074
					c-1.229-5.199-2.813-10.33-3.527-15.624c-0.054-0.396-0.081-0.799-0.075-1.198c-0.006-0.026-0.017-0.053-0.023-0.079
					c-5.682-23.421-8.554-47.424-11.104-71.39C383.436,439.625,383.356,438.869,383.462,438.126z"/>
				<path fill="#8482FF" d="M340.469,572.552c3.392-0.151,6.809-0.175,10.179,0.289c2.554,0.352,5.401,1.203,7.357,2.951
					c1.318,1.179,2.333,2.656,3.266,4.158c2.545,4.096,7.235,13.662,0.46,16.429c-1.168,0.476-2.479,0.487-3.725,0.296
					c-4.296-0.656-7.987-3.542-12.267-4.299c-1.59-0.281-3.214-0.258-4.829-0.304c-5.775-0.157-11.688-1.248-16.553-4.364
					c-2.342-1.5-3.858-3.684-4.514-6.404c-0.893-3.7,1.365-5.994,4.781-6.774C329.821,573.342,335.146,572.79,340.469,572.552z"/>
				<path fill="#424242" d="M346.063,569.962c3.448-11.422,5.179-23.359,5.118-35.291c-0.049-9.545,1.25-19.582,0.05-29.027
					c-1.208-9.513-0.466-19.895,1.235-29.323c2.752-15.261,9.482-29.729,10.826-45.178c0.506-5.823,0.238-11.721,1.25-17.477
					c6.902,3.568,15.092,4.582,22.656,2.805c3.944-0.925,7.658-2.567,11.439-3.977c1.578-0.656,3.272-0.798,4.869-1.379
					c1.42-0.518,2.361-1.379,3.545-2.367c5.98,7.215,9.537,16.401,9.971,25.763c0.33,7.1-1.137,14.266-4.171,20.689
					c-3.181,6.731-8.317,11.475-13.843,16.318c-5.33,4.673-10.938,9.229-14.785,15.185c-3.326,5.147-5.101,11.709-6.736,17.56
					c-1.85,6.618-3.289,13.395-3.6,20.275c-0.286,6.35,0.576,12.218-0.533,18.586c-0.504,2.888-1.201,5.742-2.09,8.536
					c-3.243,10.191-9.07,19.968-8.703,30.657c0.017,0.453,0.03,0.948-0.246,1.307c-0.213,0.273-0.553,0.41-0.882,0.516
					c-4.39,1.411-9.213-0.504-12.878-3.301c-1.26-0.962-2.477-2.083-3.073-3.553C344.549,574.969,345.342,572.355,346.063,569.962z"
					/>
				<path fill="#D9D9D9" d="M424.591,331.319c1.296,7.006,0.58,14.714-0.768,21.309c-1.96,9.589-4.704,19.018-8.193,28.162
					c-1.423,3.727-2.987,7.479-3.306,11.455c-0.561,6.984,2.755,13.632,6.064,19.808c0.309,0.575,0.627,1.195,0.562,1.845
					c-0.054,0.528-0.354,0.996-0.661,1.433c-4.017,5.723-10.104,9.8-16.687,12.157s-13.656,3.085-20.647,2.996
					c-5.937-0.074-12.01-0.764-17.328-3.402c-0.299-8.719-0.599-17.439-0.521-26.164c0.073-8.202,2.05-16.822,0.095-24.919
					c-0.707-2.929-1.92-5.714-2.685-8.628c-0.815-3.105-1.111-6.347-0.876-9.549c0.191-2.608,0.947-5.499,3.209-6.813
					c0.705-0.409,1.504-0.628,2.225-1.007c3.427-1.801,4.256-6.621,7.561-8.637c1.195-0.729,2.601-1.013,3.949-1.391
					c14.449-4.042,25.361-21.79,41.442-19.235c0.859,0.136,1.748,0.293,2.468,0.783c0.777,0.528,1.267,1.379,1.678,2.224
					C423.318,326.104,424.099,328.662,424.591,331.319z"/>
				<path fill="#FFB78C" d="M417.516,325.749c0.205,0.399,0.391,0.805,0.53,1.23c1.019,3.106-1.874,5.166-4.266,6.49
					c-3.851,2.135-8.292,3.084-12.695,3.103c-2.661,0.011-5.314-0.31-7.915-0.862c-1.002-0.213-1.692-0.236-2.196-1.14
					c-0.589-1.055-0.659-2.368-0.724-3.544c-0.145-2.66-0.217-5.325-0.289-7.987c-0.111-4.126-0.224-8.251-0.335-12.377
					c-0.047-1.742,2.38-1.244,3.676-1.412c1.876-0.243,3.75-0.513,5.609-0.864c3.686-0.695,7.338-1.711,10.692-3.417
					c0.888-0.452,2.301-1.536,3.308-1.588c1.261-0.066,1.243,1.601,1.382,2.616c0.383,2.808,0.311,5.65,0.406,8.476
					c0.111,3.311,0.471,6.703,1.957,9.662C416.928,324.679,417.238,325.208,417.516,325.749z"/>
				<path fill="#FFE5CC" d="M382.569,284.767c-0.376,0.6-0.753,1.23-0.829,1.934c-0.072,0.667,0.135,1.333,0.138,2.005
					c0.01,2.339-2.272,3.912-4.126,5.336c-0.734,0.564-1.508,1.335-1.392,2.255c0.046,0.368,0.235,0.7,0.402,1.032
					c1.306,2.595,1.384,5.547,1.22,8.388c-0.105,1.805-1.495,6.639,0.331,7.796c2.168,1.373,4.519,2.453,6.972,3.205
					c1.441,0.441,3.18,0.782,4.563-0.012c1.19-0.683,1.995-2.07,3.072-2.966c1.281-1.066,3.003,0.471,4.386,0.927
					c1.803,0.595,3.68,0.964,5.57,1.115c3.676,0.293,7.421-0.235,10.864-1.556c2.204-0.846,4.312-2.007,6.049-3.607
					c1.94-1.786,3.358-4.058,4.666-6.348c1.749-3.063,3.373-6.304,3.749-9.811c0.398-3.732-0.693-7.437-2.468-10.693
					c-1.757-3.222-3.954-5.597-6.839-7.795c-5.322-4.06-12.41-4.89-19.105-4.897c-2.437-0.002-4.461,0.198-6.684,1.144
					c-2.336,0.993-4.236,2.595-5.246,4.886C386.648,279.854,384.166,282.212,382.569,284.767z"/>
				<path fill="#733118" d="M397.127,302.078c-0.797-1.346-2.076-2.345-3.734-3.248c-3.496-1.898-4.128-6.229-4.574-9.749
					c-0.576-4.529-0.469-9.608,1.119-13.919c1.457-3.951,6.354-5.546,10.125-6.011c4.654-0.573,9.465-0.055,13.813,1.698
					c6.465,2.605,11.86,8.699,14.806,14.886c3.586,7.535,3.648,15.349,3.1,23.465c-0.186,2.743-0.281,4.665-2.197,6.821
					c-1.172,1.319-2.658,2.322-4.195,3.188c-8.376,4.72-18.818,5.596-27.864,2.339c-1.354-0.487-2.698-1.076-3.788-2.013
					c-2.693-2.317-2.277-5.551-0.066-8.065c1.133-1.288,3.063-1.465,3.93-3.089c0.404-0.761,0.471-1.656,0.469-2.519
					C398.062,304.326,397.733,303.102,397.127,302.078z"/>
				<g>
					<g enable-background="new    ">
						<path fill="#8482FF" d="M286.963,269.978l42.576-24.582c1.345-0.776,2.563-0.848,3.441-0.336l5.575,3.24
							c-0.879-0.51-2.097-0.439-3.442,0.337l-42.576,24.582c-2.67,1.541-4.827,5.278-4.819,8.338l0.13,45.939
							c0.004,1.519,0.541,2.589,1.409,3.092l-5.575-3.24c-0.867-0.503-1.404-1.573-1.409-3.092l-0.131-45.939
							C282.136,275.256,284.293,271.519,286.963,269.978z"/>
						<g>
							<path fill="#4D4BB7" d="M292.538,273.218c-2.67,1.541-4.827,5.278-4.818,8.338l0.129,45.939
								c0.009,3.059,2.181,4.296,4.85,2.755l42.578-24.582c2.67-1.541,4.827-5.278,4.817-8.338l-0.129-45.939
								c-0.009-3.059-2.18-4.296-4.85-2.755L292.538,273.218z"/>
						</g>
						<path fill="#FFFFFF" d="M315.355,274.032c7.494-4.327,13.563-0.867,13.563,7.732c0,8.591-6.068,19.065-13.563,23.392
							c-7.486,4.323-13.562,0.859-13.562-7.732C301.794,288.824,307.869,278.354,315.355,274.032z M318.667,294.854v-13.991
							l-10.56,13.096L318.667,294.854z"/>
					</g>
				</g>
				<path fill="#FFE5CC" d="M358.381,371.361c-13.449,1.158-26.984,0.163-40.434-0.995c-0.064-0.005-0.13-0.021-0.195-0.027
					c-3.393-0.328-4.174-3.18-5.505-5.842c-1.19-2.382-2.257-4.824-3.3-7.274c-5.603-13.166-10.524-26.616-14.813-40.266
					c-0.78-1.208-2.062-2.059-3.202-2.973c-4.651-3.729-8.446-8.518-11.012-13.898c-0.819-1.721-1.508-3.791-0.605-5.47
					c0.28-0.522,0.702-0.971,0.91-1.526c0.248-0.661,0.166-1.405,0.375-2.08c0.473-1.523,2.243-2.268,2.992-3.676
					c0.299-0.561,0.491-1.277,1.085-1.503c0.489-0.186,1.055,0.081,1.392,0.482s0.502,0.914,0.691,1.403
					c1.09,2.792,3.271,5.141,5.977,6.432c0.521,0.25,1.171,0.45,1.646,0.124c-0.831-1.33-1.445-2.794-1.812-4.318
					c-0.212-0.882-0.334-1.845,0.037-2.673s1.398-1.417,2.217-1.023c0.802,0.385,0.995,1.41,1.19,2.276
					c0.328,1.448,0.932,2.833,1.77,4.059c0.871,1.271,1.983,2.365,2.833,3.65c0.719,1.085,1.235,2.291,1.6,3.539
					c0.661,2.254,0.891,4.666,0.952,7.007c0.032,1.247,0.187,2.543,0.44,3.822c0.053,0.132,0.106,0.266,0.154,0.397
					c1.407,3.863,20.25,39.429,22.982,43.555c0.8-0.009,1.591-0.024,2.341-0.113c8.898-1.035,17.877-2.482,26.057-6.14
					c4.139-1.852,8.055-4.261,12.4-5.557c4.347-1.296,9.395-1.311,13.05,1.375c2.915,2.142,4.403,5.606,5.112,9.056
					c2.732,13.309-14.172,16.653-23.77,17.812C360.754,371.138,359.568,371.258,358.381,371.361z"/>
				<path fill="#F2F2F2" d="M344.024,360.654c-0.044,4.617,1.092,9.003,3.274,13.066c0.782,1.457,1.57,1.992,3.303,1.959
					c1.233-0.022,2.46-0.172,3.683-0.34c6.89-0.947,13.701-2.459,20.345-4.514c3.17-0.98,5.881-1.689,8.688-3.567
					c1.534-1.026,2.886-2.34,3.849-3.922c1.57-2.585,2.129-5.673,1.561-8.645c-1.028-5.36-4.685-10.307-9.793-12.399
					c-0.67-0.275-1.363-0.503-2.075-0.64c-1.476-0.284-2.997-0.169-4.482,0.049c-4.22,0.621-8.27,2.063-12.284,3.504
					c-4.256,1.527-8.51,3.063-12.759,4.606c-1.856,0.674-1.964,2.288-2.431,3.998C344.287,356.052,344.047,358.332,344.024,360.654z
					"/>
				<path fill="#FFE5CC" d="M343.732,267.37c1.166,0.74,2.432,1.392,3.321,2.448c1.304,1.547,1.587,3.736,1.335,5.743
					c-0.111,0.877-0.324,1.769-0.833,2.492c-0.509,0.724-1.366,1.251-2.247,1.168c-0.82-0.077-1.512-0.654-2.024-1.299
					c-0.544-0.684-0.951-1.476-1.192-2.317c-0.484-1.687-0.328-3.61-1.328-5.051c-0.457-0.66-1.115-1.148-1.723-1.672
					c-0.768-0.66-1.477-1.396-2.04-2.237c-0.405-0.606-0.737-1.273-0.865-1.992c-0.128-0.718-0.036-1.491,0.353-2.109
					c1.074-1.708,2.468,0.736,3.183,1.487C340.883,265.305,342.25,266.429,343.732,267.37z"/>
			</g>
		</g>
	</g>
	<g>
		<g>
			<path fill="#FFB78C" d="M164.258,420.087c-7.905,1.857-15.811,3.714-23.716,5.57c-4.739,1.113-9.508,2.235-13.981,4.154
				c-4.475,1.92-8.685,4.698-11.601,8.598c-0.165,0.222-0.33,0.526-0.175,0.755c0.1,0.146,0.289,0.192,0.462,0.228
				c6.114,1.246,12.335,2.499,18.55,1.938c4.785-0.433,9.417-1.931,13.863-3.755c4.955-2.03,9.741-4.476,14.291-7.302
				c3.616-2.247,7.208-4.869,9.229-8.617c0.243-0.449,0.467-0.971,0.312-1.458c-0.129-0.406-0.491-0.688-0.848-0.921
				c-1.02-0.672-1.92-1.337-3.002-0.58C166.602,419.43,165.489,419.799,164.258,420.087z"/>
			<path fill="#FFE5CC" d="M65.4,470.951c0,10.876,7.667,24.137,17.168,29.586c4.798,2.772,9.139,3.014,12.248,1.157
				c0.072-0.024,0.122-0.049,0.193-0.097c5.666-3.375,12.201-5.256,18.64-6.341c8.994-1.495,18.18-1.472,27.295-2.146
				c3.906-0.289,7.86-0.724,11.525-2.146c4.171-1.591,7.764-4.364,11.14-7.306c2.918-2.531,5.738-5.232,8.536-7.908
				c8.343-8.005,16.686-16.01,25.053-23.991c0.94-0.94,2.025-1.905,2.749-3.014c0.699-1.062,0.289-2.628-0.265-3.665
				c-0.603-1.108-1.543-2.001-2.508-2.797c-0.048-0.023-0.097-0.072-0.145-0.12c-0.119-0.145-0.216-0.313-0.169-0.482
				c0.05-0.071,0.121-0.144,0.193-0.193c0.048-0.047,0.097-0.071,0.145-0.121c0,0,0-0.024,0.024-0.024
				c1.952-1.591,3.882-3.159,5.835-4.726c1.206-0.965,2.483-2.049,2.821-3.568c0.313-1.374-0.289-2.868-1.326-3.833
				c-0.507-0.458-1.109-0.82-1.761-1.037c-0.265-0.097-0.507-0.12-0.748-0.12c-0.457,0-0.892,0.072-1.35-0.047
				c0.965-0.699,1.929-1.399,2.894-2.074c0-0.048,0.024-0.048,0.048-0.024c0.893-0.676,1.784-1.302,2.676-1.953
				c1.012-0.748,1.904-1.785,2.001-3.087c0.145-1.904-1.182-3.786-2.846-4.582c-2.267-1.108-5.328-0.145-7.45,1.182
				c-0.241,0.145-0.458,0.313-0.676,0.458c0.217-0.169,0.41-0.748,0.579-0.989c0.24-0.386,0.529-0.748,0.795-1.109
				c0.145-0.193,0.289-0.361,0.435-0.555c0.435-0.531,0.844-1.085,1.206-1.662c0.892-1.495,1.591-3.328,0.555-4.943
				c-0.796-1.23-2.34-1.784-3.786-1.809c-1.688-0.048-3.304,0.434-4.895,0.965c-5.69,1.855-11.26,4.026-16.686,6.485
				c-2.509,1.134-4.968,2.29-7.258,3.786c-2.387,1.566-4.46,3.447-6.654,5.232c-7.09,5.739-15.987,9.186-25.076,9.692
				c-4.389,0.241-8.825-0.169-13.141,0.603c-4.413,0.796-8.512,2.772-12.539,4.773c-6.605,3.328-26.403,14.105-39.23,20.954
				c-0.627,0.338-1.253,0.651-1.832,0.964C67.063,462.222,65.4,465.888,65.4,470.951z"/>
			<path fill="#FFB78C" d="M65.4,470.951c0,10.876,7.667,24.137,17.168,29.586c4.798,2.772,9.139,3.014,12.248,1.157
				c0.072-0.024,0.122-0.049,0.193-0.097c2.919-1.832,4.702-5.57,4.702-10.826c0-10.875-7.667-24.136-17.144-29.609
				c-4.146-2.387-7.957-2.894-10.923-1.808c-0.651,0.241-1.254,0.555-1.833,0.964C67.063,462.222,65.4,465.888,65.4,470.951z"/>
			<path fill="#FFB78C" d="M200.273,408.734c0.583,0.738,0.81,1.704,0.849,2.645c0.015,0.352,0.004,0.711-0.1,1.047
				c-0.118,0.376-0.346,0.707-0.587,1.019c-1.212,1.567-2.8,2.801-4.426,3.935c-1.146-1.587-1.32-3.654-1.455-5.607
				c-0.009-0.134-0.019-0.271,0.021-0.4c0.038-0.119,0.114-0.222,0.19-0.32c0.6-0.79,1.199-1.58,1.799-2.369
				c0.496-0.653,0.826-1.063,1.658-0.978C199.043,407.787,199.748,408.071,200.273,408.734z"/>
			<path fill="#FFB78C" d="M208.126,420.068c0.171,0.698,0.115,1.433,0.012,2.144c-0.06,0.404-0.143,0.824-0.4,1.14
				c-0.179,0.218-0.426,0.366-0.671,0.504c-1.782,1.012-3.704,1.776-5.694,2.266c-0.512-1.49-0.565-3.094-0.614-4.669
				c-0.008-0.215-0.013-0.435,0.068-0.634c0.058-0.143,0.157-0.264,0.259-0.38c1.024-1.181,2.417-2.032,3.93-2.42
				c0.781-0.2,1.212-0.347,1.887,0.18C207.498,418.665,207.945,419.33,208.126,420.068z"/>
			<path fill="#FFB78C" d="M205.434,432.567c0.18,0.595,0.344,1.244,0.125,1.826c-0.14,0.37-0.422,0.668-0.702,0.948
				c-1.64,1.646-3.51,3.097-5.641,4.02c-0.133-1.007-0.261-2.023-0.193-3.037c0.067-1.015,0.341-2.037,0.943-2.855
				c0.745-1.013,1.899-1.595,3.054-2.017c0.382-0.14,1.138-0.559,1.544-0.414C205.062,431.215,205.301,432.129,205.434,432.567z"/>
			<path fill="#FFB78C" d="M198.896,448.974c-1.304,0.888-2.607,1.775-3.912,2.664c-0.065,0.045-0.144,0.09-0.216,0.06
				c-0.079-0.033-0.097-0.138-0.103-0.225c-0.065-1.016-0.125-2.076,0.27-3.015c0.329-0.787,0.942-1.403,1.563-1.97
				c0.585-0.532,1.244-1.232,2.027-1.451c1.324-0.37,2.421,0.893,2.016,2.176C200.295,448,199.545,448.531,198.896,448.974z"/>
			<path fill="#FFB78C" d="M159.373,479.824c4.388-1.856,7.836-5.353,11.164-8.776c5.232-5.329,10.44-10.682,15.649-16.034
				c1.953-2.001,3.93-4.002,5.618-6.244c1.784-2.34,3.23-4.654,5.232-6.606c-0.121-0.145-0.217-0.313-0.169-0.482
				c0.048-0.072,0.12-0.145,0.192-0.193c0.049-0.048,0.097-0.072,0.144-0.121c-2.508,1.472-4.532,3.786-6.413,5.932
				c-4.727,5.474-9.283,11.092-14.443,16.131C170.729,468.95,164.412,473.796,159.373,479.824z"/>
			<path fill="#FFB78C" d="M162.483,465.115c4.967-3.641,9.114-8.223,13.237-12.779c3.496-3.883,6.969-7.74,10.465-11.598
				c1.495-1.663,2.99-3.327,4.679-4.798c1.566-1.375,3.279-2.556,4.991-3.737c1.904-1.302,3.786-2.772,5.787-3.905
				c0.145-0.072,0.289-0.145,0.41-0.241c-0.458,0-0.893,0.072-1.35-0.048c0.964-0.699,1.929-1.399,2.893-2.073
				c-4.605,2.146-8.945,5.618-12.586,9.091c-1.904,1.808-3.689,3.736-5.474,5.69C177.938,448.912,170.247,457.063,162.483,465.115z"
				/>
			<path fill="#FFB78C" d="M160.435,447.973c2.772-1.423,5.015-3.642,7.281-5.763c7.112-6.752,14.732-12.997,22.737-18.688
				c2.483-1.76,5.136-3.497,7.281-5.69c0.097-0.121,0.217-0.24,0.289-0.361c-0.241,0.145-0.458,0.314-0.676,0.459
				c0.217-0.17,0.41-0.748,0.579-0.99c0.241-0.385,0.53-0.747,0.796-1.108c0.144-0.193,0.288-0.36,0.434-0.554
				c-0.723,0.481-1.446,0.964-2.146,1.471c-6.679,4.678-12.779,10.055-18.855,15.455c-2.218,1.978-4.437,3.955-6.63,5.907
				C167.813,441.414,164.123,444.693,160.435,447.973z"/>
			<path fill="#FFB78C" d="M148.768,449.564c-0.681,0.071-1.367,0.073-2.048,0.008c-0.343-0.033-0.702-0.091-0.975-0.3
				c-0.232-0.178-0.377-0.447-0.477-0.723c-0.33-0.912-0.22-1.942,0.156-2.837c0.985-2.344,4.606-5.693,6.799-2.757
				C154.212,445.623,151.674,449.26,148.768,449.564z"/>
			<path fill="#FFB78C" d="M153.856,469.038c-0.41,0.037-0.833,0.042-1.223-0.093c-0.878-0.302-1.397-1.302-1.308-2.225
				c0.287-2.933,5.442-4.438,7.48-2.474C161.447,466.791,155.711,468.872,153.856,469.038z"/>
			<path fill="#FFB78C" d="M153.761,481.447c-1.333-0.596,1.294-7.205,4.337-4.711c0.793,0.649,1.376,1.733,0.807,2.694
				C158.292,480.458,154.908,481.96,153.761,481.447z"/>
			<path fill="#FFB78C" d="M154.192,487.697c-0.09-0.1-0.117-0.239-0.122-0.372c-0.061-1.542,3.604-4.244,4.233-2.041
				c0.182,0.641-0.145,1.582-0.631,2.011C157.149,487.756,154.701,488.265,154.192,487.697z"/>
		</g>
	</g>
	<g>
		<g enable-background="new    ">
			<path fill="#4D4D4D" d="M85.572,196.992c6.967-4.022,13.286-4.396,17.851-1.743l7.206,4.187
				c-4.564-2.652-10.884-2.279-17.852,1.743c-13.86,8.002-25.052,27.386-25.006,43.313c0.021,7.896,2.812,13.455,7.311,16.07
				l-7.205-4.188c-4.5-2.614-7.289-8.172-7.312-16.07C60.521,224.378,71.711,204.995,85.572,196.992z"/>
			<g>
				<path d="M92.777,201.18c-13.86,8.002-25.051,27.386-25.006,43.313c0.045,15.902,11.31,22.321,25.17,14.318
					c13.839-7.99,25.052-27.386,25.007-43.288C117.902,199.596,106.617,193.189,92.777,201.18z"/>
			</g>
			<path fill="#FFFFFF" d="M92.108,212.826c8.715-5.031,15.771-1.009,15.771,8.991c0,9.992-7.057,22.172-15.771,27.202
				c-8.708,5.027-15.771,0.999-15.771-8.991C76.337,230.029,83.4,217.853,92.108,212.826z M95.959,237.042v-16.271L83.68,236
				L95.959,237.042z"/>
		</g>
		<g enable-background="new    ">
			<path fill="#FFD166" d="M73.57,281.289l23.564-13.604c3.704-2.139,7.06-2.335,9.481-0.928l7.206,4.187
				c-2.423-1.408-5.777-1.21-9.481,0.928l-23.564,13.605c-7.333,4.234-13.275,14.526-13.251,22.952l0.077,27.103
				c0.013,4.186,1.493,7.134,3.881,8.521l-7.205-4.188c-2.389-1.388-3.87-4.335-3.882-8.521l-0.077-27.103
				C60.295,295.815,66.237,285.523,73.57,281.289z"/>
			<g>
				<path fill="#FFAD66" d="M80.776,285.477c-7.333,4.234-13.275,14.526-13.251,22.952l0.077,27.103
					c0.024,8.426,6.005,11.835,13.338,7.601l23.565-13.606c7.355-4.246,13.298-14.539,13.273-22.964l-0.077-27.103
					c-0.024-8.426-6.005-11.835-13.36-7.589L80.776,285.477z"/>
			</g>
			<path fill="#FFFFFF" d="M92.108,289.824c8.715-5.031,15.771-1.009,15.771,8.991c0,9.992-7.057,22.172-15.771,27.202
				c-8.708,5.027-15.771,0.999-15.771-8.991C76.337,307.026,83.4,294.85,92.108,289.824z M95.959,314.039v-16.271L83.68,312.997
				L95.959,314.039z"/>
		</g>
		<g enable-background="new    ">
			<path fill="#8482FF" d="M63.091,370.535l44.128-25.476c0.834-0.482,1.599-0.528,2.151-0.207l7.206,4.187
				c-0.553-0.32-1.316-0.275-2.152,0.207l-44.127,25.477c-1.676,0.967-3.02,3.296-3.016,5.221l0.144,50.706
				c0.003,0.94,0.337,1.604,0.875,1.918l-7.205-4.188c-0.539-0.313-0.872-0.979-0.875-1.918l-0.144-50.706
				C60.071,373.832,61.416,371.503,63.091,370.535z"/>
			<g>
				<path fill="#4D4BB7" d="M70.298,374.723c-1.676,0.967-3.021,3.296-3.015,5.222l0.143,50.706
					c0.005,1.899,1.359,2.671,3.035,1.704l44.127-25.477c1.654-0.955,3.02-3.296,3.015-5.197l-0.143-50.706
					c-0.005-1.925-1.381-2.684-3.034-1.729L70.298,374.723z"/>
			</g>
			<path fill="#FFFFFF" d="M92.108,372.624c8.715-5.032,15.771-1.009,15.771,8.992c0,9.991-7.057,22.171-15.771,27.203
				c-8.708,5.026-15.771,0.998-15.771-8.992C76.337,389.826,83.4,377.651,92.108,372.624z M95.959,396.84v-16.271L83.68,395.798
				L95.959,396.84z"/>
		</g>
	</g>
	<g>
		<g>
			<polygon fill="#231F20" points="75.317,436.526 75.317,433.182 79.966,430.497 79.966,433.843 			"/>
			<polygon fill="#231F20" points="66.977,441.342 66.977,437.997 71.627,435.313 71.627,438.657 			"/>
			<path fill="#231F20" d="M58.182,446.367l1.411-4.107l4.049-2.338l-0.504,3.636C61.479,444.516,59.811,445.489,58.182,446.367z"/>
		</g>
		<g>
			<polygon fill="#231F20" points="100.366,422.063 100.366,418.719 105.017,416.035 105.017,419.38 			"/>
			<polygon fill="#231F20" points="92.027,426.879 92.027,423.534 96.678,420.85 96.678,424.194 			"/>
			<polygon fill="#231F20" points="83.715,431.679 83.715,428.333 88.365,425.649 88.365,428.993 			"/>
		</g>
		<g>
			<path fill="#231F20" d="M123.404,402.195l-2.784-0.433l0.011-4.651l2.914-0.614C123.537,398.405,123.499,400.304,123.404,402.195
				z"/>
			<path fill="#231F20" d="M117.648,411.943l-1.752-2.193c1.353-0.791,2.681-2.272,3.562-3.957l2.454,1.281
				C120.838,409.113,119.254,410.923,117.648,411.943z"/>
			<polygon fill="#231F20" points="108.823,417.182 108.659,413.932 112.707,411.594 113.8,414.301 			"/>
		</g>
		<g>
			<polygon fill="#231F20" points="123.545,372.708 120.631,374.392 120.631,369.056 123.545,367.373 			"/>
			<polygon fill="#231F20" points="123.545,382.279 120.631,383.962 120.631,378.625 123.545,376.942 			"/>
			<polygon fill="#231F20" points="123.545,391.89 120.631,393.365 120.631,388.164 123.545,386.481 			"/>
		</g>
		<g>
			<polygon fill="#231F20" points="123.545,343.964 120.631,345.647 120.631,340.806 123.545,338.357 			"/>
			<polygon fill="#231F20" points="123.545,353.533 120.631,355.216 120.631,349.881 123.545,348.198 			"/>
			<polygon fill="#231F20" points="123.545,363.072 120.631,364.755 120.631,359.418 123.545,357.736 			"/>
		</g>
		<g>
			<polygon fill="#231F20" points="111.199,331.681 110.591,335.376 106.334,337.834 106.334,334.49 			"/>
			<path fill="#231F20" d="M119.906,327.459l-2.113,4.241c-1.246,0.023-2.657,1.105-3.989,1.821l1.332-4.077
				C116.756,328.618,118.414,327.451,119.906,327.459z"/>
			<path fill="#231F20" d="M123.503,333.801l-2.872,3.259c-0.006-0.77,0.015-1.558-0.015-2.313c-0.04-0.75-0.225-1.404-0.538-1.908
				l2.597-3.988c0.394,0.593,0.638,1.361,0.72,2.231C123.463,331.96,123.474,332.879,123.503,333.801z"/>
		</g>
		<g>
			<polygon fill="#231F20" points="85.934,346.268 85.934,349.613 81.284,352.297 81.284,348.952 			"/>
			<polygon fill="#231F20" points="94.273,341.454 94.273,344.798 89.623,347.482 89.623,344.138 			"/>
			<polygon fill="#231F20" points="102.586,336.654 102.586,340 97.936,342.684 97.936,339.338 			"/>
		</g>
		<g>
			<path fill="#231F20" d="M60.534,360.935l0.988,2.771c-1.349,0.791-2.7,1.531-4.048,2.363l-1.827-2.122
				C57.247,362.881,58.877,361.915,60.534,360.935z"/>
			<polygon fill="#231F20" points="69.223,355.915 69.223,359.26 64.736,361.851 64.485,358.652 			"/>
			<polygon fill="#231F20" points="77.535,351.117 77.535,354.461 72.885,357.146 72.885,353.801 			"/>
		</g>
		<g>
			<polygon fill="#231F20" points="50.23,388.482 53.145,386.799 53.145,392.135 50.23,393.817 			"/>
			<polygon fill="#231F20" points="50.234,378.496 53.145,377.989 53.145,382.635 50.23,384.209 			"/>
			<path fill="#231F20" d="M52.177,367.92l2.398,1.379c-0.976,1.646-1.482,3.51-1.431,5.029l-2.809-0.321
				C50.347,372.164,50.996,369.918,52.177,367.92z"/>
		</g>
		<g>
			<polygon fill="#231F20" points="50.23,417.227 53.145,415.543 53.145,420.879 50.23,422.562 			"/>
			<polygon fill="#231F20" points="50.23,407.657 53.145,405.975 53.145,411.31 50.23,412.992 			"/>
			<polygon fill="#231F20" points="50.23,398.119 53.145,396.436 53.145,401.772 50.23,403.454 			"/>
		</g>
		<g>
			<path fill="#231F20" d="M50.857,446.288l2.648-3.924c0.508,1.146,1.579,1.679,2.853,1.451l-2.04,4.246
				C52.797,448.28,51.504,447.635,50.857,446.288z"/>
			<path fill="#231F20" d="M50.23,436.636l2.915-2.343v4.646l-2.857,3.343C50.228,440.452,50.228,438.541,50.23,436.636z"/>
			<polygon fill="#231F20" points="50.23,426.864 53.145,425.182 53.145,430.517 50.23,432.2 			"/>
		</g>
	</g>
	<g>
		<g enable-background="new    ">
			<g>
				<path fill="#FFD166" d="M460.08,331.816l-4.637,2.694c5.129,2.774,8.529,2.878,10.765,1.579l4.636-2.695
					C468.607,334.693,465.209,334.589,460.08,331.816z"/>
				<path fill="#FFD166" d="M480.803,341.344l4.637-2.694c2.936-1.706,5.854-4.591,8.579-9.114l-4.637,2.694
					C486.656,336.752,483.739,339.637,480.803,341.344z"/>
				<path fill="#FFD166" d="M508.891,284.846l-46.119-26.627c-1.955-1.128-3.722-1.236-4.996-0.496l-4.637,2.695
					c1.275-0.741,3.041-0.633,4.996,0.496l46.12,26.627c3.864,2.231,7.005,7.646,6.991,12.11l-0.105,37.092
					c-0.006,2.201-0.785,3.747-2.039,4.475l4.637-2.695c1.254-0.729,2.033-2.275,2.039-4.475l0.105-37.092
					C515.895,292.491,512.756,287.076,508.891,284.846z"/>
			</g>
			<g>
				<path fill="#FFAD66" d="M504.255,287.54c3.864,2.231,7.003,7.645,6.991,12.11l-0.105,37.092
					c-0.012,4.44-3.172,6.218-7.037,3.986l-14.722-8.5c-8.765,14.545-19.503,12.151-26.522,8.098
					c-4.458-2.573-7.268-5.654-7.416-5.815c15.859,8.576,15.191-8.367,14.659-13.414l-12.118-6.997
					c-3.885-2.244-7.004-7.646-6.992-12.085l0.105-37.092c0.012-4.465,3.152-6.253,7.038-4.011L504.255,287.54z"/>
			</g>
			<g>
				<path fill="#FFFFFF" d="M503.299,316.779c0.059-0.502,0.09-1.031,0.092-1.588c0.001-0.547-0.027-1.112-0.082-1.679l2.01,0.413
					c0.299,0.06,0.463-0.212,0.368-0.61l-1.065-4.422c-0.075-0.319-0.297-0.622-0.534-0.759c-0.059-0.033-0.118-0.058-0.177-0.068
					l-2.004-0.41c-0.467-1.227-1.027-2.437-1.672-3.609l1.25-1.241c0.187-0.188,0.127-0.627-0.122-0.984l-2.81-3.971
					c-0.099-0.143-0.217-0.252-0.332-0.318c-0.174-0.101-0.347-0.108-0.458,0.006l-1.241,1.245
					c-0.854-0.945-1.756-1.809-2.704-2.571l0.008-2.423c0.001-0.361-0.251-0.798-0.565-0.979l-3.475-2.005
					c-0.313-0.181-0.567-0.037-0.568,0.324l-0.008,2.423c-0.949-0.335-1.854-0.513-2.705-0.553l-1.233-2.674
					c-0.11-0.241-0.282-0.433-0.454-0.532c-0.116-0.067-0.232-0.093-0.334-0.066l-2.819,0.722c-0.255,0.066-0.315,0.436-0.131,0.838
					l1.237,2.677c-0.648,0.426-1.214,0.986-1.682,1.674l-2.001-1.903c-0.06-0.056-0.118-0.102-0.178-0.136
					c-0.239-0.139-0.462-0.092-0.537,0.141l-1.089,3.179c-0.095,0.289,0.066,0.748,0.365,1.033l2.005,1.906
					c-0.054,0.503-0.091,1.032-0.092,1.579c-0.001,0.556,0.03,1.123,0.082,1.688l-2.01-0.411c-0.298-0.06-0.462,0.212-0.368,0.609
					l1.066,4.422c0.075,0.316,0.297,0.622,0.537,0.76c0.059,0.033,0.117,0.058,0.176,0.068l2.006,0.41
					c0.462,1.224,1.022,2.431,1.666,3.607l-1.25,1.241c-0.186,0.188-0.127,0.627,0.127,0.987l2.805,3.969
					c0.102,0.143,0.217,0.251,0.332,0.317c0.176,0.101,0.347,0.106,0.459-0.003l1.245-1.248c0.849,0.948,1.751,1.812,2.7,2.572
					l-0.008,2.42c-0.001,0.365,0.252,0.798,0.566,0.979l3.473,2.006c0.314,0.181,0.568,0.041,0.57-0.324l0.007-2.419
					c0.95,0.335,1.853,0.513,2.708,0.551l1.23,2.677c0.111,0.24,0.284,0.433,0.459,0.534c0.115,0.067,0.231,0.093,0.33,0.066
					l2.823-0.72c0.249-0.068,0.312-0.438,0.127-0.84l-1.237-2.677c0.648-0.431,1.215-0.986,1.686-1.672l2.001,1.903
					c0.058,0.055,0.116,0.099,0.174,0.133c0.237,0.137,0.462,0.089,0.538-0.14l1.088-3.179c0.096-0.289-0.066-0.747-0.365-1.033
					L503.299,316.779z M491.449,317.908c-4.611-2.663-8.338-9.117-8.322-14.415c0.016-5.295,3.766-7.427,8.377-4.765
					c4.607,2.66,8.334,9.109,8.318,14.404C499.807,318.43,496.057,320.567,491.449,317.908L491.449,317.908z"/>
			</g>
			<g>
				<path fill="#FFFFFF" d="M474.916,297.92c-0.131-0.858-0.341-1.724-0.623-2.586l1.225-0.316c0.183-0.048,0.225-0.314,0.094-0.599
					l-1.457-3.155c-0.08-0.173-0.203-0.311-0.33-0.383c-0.082-0.048-0.164-0.067-0.236-0.048l-1.225,0.316
					c-0.497-0.817-1.048-1.601-1.641-2.326l0.471-1.378c0.068-0.208-0.048-0.536-0.26-0.741l-2.363-2.247
					c-0.043-0.042-0.086-0.074-0.127-0.098c-0.17-0.098-0.33-0.063-0.384,0.103l-0.47,1.382c-0.337-0.237-0.672-0.463-1.016-0.661
					c-0.348-0.201-0.685-0.365-1.021-0.515l-0.46-1.919c-0.054-0.23-0.212-0.447-0.382-0.544c-0.043-0.024-0.086-0.042-0.127-0.049
					l-2.369-0.484c-0.211-0.039-0.33,0.153-0.262,0.439l0.461,1.914c-0.596,0.039-1.148,0.186-1.648,0.427l-1.218-1.726
					c-0.071-0.102-0.153-0.179-0.237-0.227c-0.126-0.072-0.25-0.077-0.33,0.002l-1.469,1.466c-0.134,0.132-0.092,0.447,0.088,0.704
					l1.218,1.726c-0.285,0.536-0.499,1.157-0.634,1.862l-1.508-0.871c-0.227-0.131-0.409-0.032-0.41,0.229l-0.009,2.858
					c0,0.256,0.18,0.569,0.407,0.7l1.508,0.871c0.131,0.858,0.34,1.723,0.621,2.586l-1.225,0.316
					c-0.181,0.048-0.224,0.314-0.092,0.595l1.456,3.159c0.079,0.173,0.203,0.311,0.329,0.383c0.082,0.048,0.165,0.067,0.237,0.048
					l1.224-0.316c0.498,0.817,1.049,1.601,1.641,2.326l-0.471,1.378c-0.068,0.208,0.049,0.536,0.26,0.737l2.363,2.252
					c0.041,0.039,0.082,0.07,0.125,0.093c0.171,0.099,0.332,0.066,0.387-0.098l0.471-1.382c0.336,0.237,0.674,0.458,1.021,0.658
					c0.345,0.198,0.681,0.367,1.018,0.518l0.46,1.919c0.055,0.228,0.215,0.447,0.386,0.545c0.042,0.023,0.082,0.041,0.124,0.049
					l2.367,0.48c0.213,0.044,0.331-0.149,0.263-0.436l-0.46-1.914c0.595-0.04,1.148-0.186,1.648-0.427l1.218,1.726
					c0.071,0.102,0.154,0.179,0.237,0.227c0.127,0.072,0.25,0.077,0.33-0.002l1.469-1.47c0.135-0.127,0.092-0.443-0.089-0.7
					l-1.218-1.726c0.285-0.536,0.5-1.155,0.635-1.862l1.508,0.871c0.227,0.131,0.408,0.027,0.41-0.229l0.008-2.858
					c0.002-0.261-0.18-0.569-0.406-0.7L474.916,297.92z M466.525,301.85c-3.299-1.905-5.967-6.525-5.955-10.317
					c0.011-3.792,2.695-5.322,5.995-3.416c3.296,1.903,5.964,6.522,5.952,10.314S469.821,303.753,466.525,301.85L466.525,301.85z"/>
			</g>
		</g>
	</g>
	<g>
		<path fill="#F2F2F2" d="M493.584,480.993l50.504-29.159c0.971-0.56,0.849-1.537-0.271-2.184l-49.624-28.651
			c-1.12-0.646-2.813-0.716-3.782-0.157l-50.505,29.16c-0.97,0.56-0.847,1.537,0.272,2.184l49.624,28.651
			C490.922,481.483,492.615,481.553,493.584,480.993z"/>
		<g>
			<polygon fill="#F2F2F2" points="491.696,453.091 539.971,425.221 491.998,397.522 443.725,425.395 			"/>
			<polygon fill="#E6E6E6" points="491.713,450.051 534.704,425.229 491.981,400.564 448.991,425.385 			"/>
			<polygon fill="#BFBFBF" points="491.696,477.585 491.696,453.091 443.725,425.395 443.725,449.887 			"/>
			<polygon fill="#E6E6E6" points="539.971,425.221 539.971,449.713 491.696,477.585 491.696,453.091 			"/>
		</g>
		<g>
			<g>
				<g enable-background="new    ">
					<g>
						<polygon fill="#4D4D4D" points="524.227,431.279 527.625,429.327 528.203,421.468 529.409,404.691 526.035,406.33 
							525.07,419.66 						"/>
					</g>
					<g>
						<polygon fill="#737373" points="526.035,406.328 529.42,404.69 487.313,380.379 483.929,382.018 						"/>
					</g>
					<g>
						<polygon fill="#1F2125" points="480.283,432.268 498.53,442.801 501.398,444.464 501.641,444.608 501.664,444.295 
							503.473,443.26 506.871,441.307 508.654,440.27 512.053,438.317 513.861,437.28 517.26,435.305 519.02,434.292 
							522.441,432.314 524.227,431.279 525.07,419.66 526.035,406.33 483.923,382.008 483.754,384.42 483.49,387.842 
							483.32,390.253 483.32,390.276 483.08,393.7 482.91,396.11 482.645,399.557 482.477,401.943 482.236,405.391 482.162,406.234 
							482.067,407.801 481.802,411.248 						"/>
					</g>
				</g>
			</g>
			<g>
				<g enable-background="new    ">
					<g>
						<polygon fill="#4D4D4D" points="519.02,434.292 522.441,432.314 523.432,418.72 524.227,407.777 520.828,409.416 
							520.298,416.912 						"/>
					</g>
					<g>
						<polygon fill="#737373" points="520.838,409.416 524.223,407.778 482.115,383.469 478.73,385.106 						"/>
					</g>
					<g>
						<polygon fill="#1F2125" points="475.077,435.353 496.12,447.501 498.266,446.272 501.398,444.464 501.641,444.608 
							501.664,444.295 503.473,443.26 506.871,441.307 508.654,440.27 512.053,438.317 513.861,437.28 517.26,435.305 
							519.02,434.292 520.298,416.912 520.828,409.416 483.49,387.842 478.74,385.094 478.571,387.529 478.307,390.952 
							478.139,393.338 477.896,396.809 477.703,399.195 477.463,402.643 477.295,405.028 477.295,405.053 477.029,408.477 
							477.029,408.5 476.98,409.223 						"/>
					</g>
				</g>
			</g>
			<g>
				<g enable-background="new    ">
					<g>
						<polygon fill="#4D4D4D" points="513.861,437.28 517.26,435.305 518.658,415.973 519.02,410.861 515.645,412.502 
							515.523,414.164 						"/>
					</g>
					<g>
						<polygon fill="#737373" points="515.641,412.504 519.025,410.867 476.918,386.557 473.533,388.194 						"/>
					</g>
					<g>
						<polygon fill="#1F2125" points="469.965,437.498 491.709,450.057 496.12,447.501 498.266,446.272 501.398,444.464 
							501.641,444.608 501.664,444.295 503.473,443.26 506.871,441.307 508.654,440.27 512.053,438.317 513.861,437.28 
							515.523,414.164 515.645,412.502 483.08,393.7 473.533,388.203 473.365,390.59 473.1,394.037 472.932,396.423 
							472.932,396.448 472.689,399.87 472.521,402.281 472.256,405.729 471.798,412.212 						"/>
					</g>
				</g>
			</g>
			<g>
				<g enable-background="new    ">
					<g>
						<polygon fill="#4D4D4D" points="508.654,440.27 512.053,438.317 513.838,413.947 510.438,415.586 						"/>
					</g>
					<g>
						<polygon fill="#737373" points="510.443,415.594 513.828,413.955 471.721,389.645 468.335,391.283 						"/>
					</g>
					<g>
						<polygon fill="#1F2125" points="465.17,434.727 469.965,437.498 491.709,450.057 496.12,447.501 498.266,446.272 
							501.398,444.464 501.641,444.608 501.664,444.295 503.473,443.26 506.871,441.307 508.654,440.27 510.438,415.586 
							488.189,402.763 482.645,399.557 477.896,396.809 473.1,394.037 468.328,391.289 468.158,393.676 467.894,397.123 
							467.725,399.51 467.483,402.98 466.592,415.226 						"/>
					</g>
				</g>
			</g>
			<g>
				<g enable-background="new    ">
					<g>
						<polygon fill="#4D4D4D" points="503.473,443.26 506.871,441.307 508.631,417.033 505.256,418.672 						"/>
					</g>
					<g>
						<polygon fill="#737373" points="505.245,418.682 508.631,417.045 466.522,392.733 463.139,394.371 						"/>
					</g>
					<g>
						<polygon fill="#1F2125" points="460.396,431.979 465.17,434.727 469.965,437.498 491.709,450.057 496.12,447.501 
							498.266,446.272 501.398,444.464 501.641,444.608 501.664,444.295 503.473,443.26 505.256,418.672 482.936,405.801 
							482.236,405.391 477.463,402.643 472.689,399.87 467.894,397.123 463.145,394.375 462.977,396.762 462.711,400.208 
							462.711,400.232 461.41,418.215 						"/>
					</g>
				</g>
			</g>
			<g>
				<g enable-background="new    ">
					<g>
						<polygon fill="#4D4D4D" points="498.266,446.272 501.398,444.464 501.641,444.608 501.664,444.295 503.424,420.143 
							500.049,421.782 498.53,442.801 						"/>
					</g>
					<g>
						<polygon fill="#737373" points="500.048,421.771 503.432,420.133 461.325,395.822 457.939,397.46 						"/>
					</g>
					<g>
						<polygon fill="#1F2125" points="455.648,429.206 460.396,431.979 465.17,434.727 469.965,437.498 491.709,450.057 
							496.12,447.501 498.266,446.272 498.53,442.801 500.049,421.782 481.802,411.248 477.631,408.838 477.029,408.5 
							472.787,406.041 472.256,405.729 467.483,402.98 462.711,400.232 457.938,397.46 456.227,421.203 						"/>
					</g>
					<g>
						<path fill="#F2F2F2" d="M488.174,436.979l-6.087,0.576v2.709l10.229-0.894l-10.229-12.678v2.71L488.174,436.979z"/>
						<path fill="#F2F2F2" d="M477.48,441.309l1.967,1.135c-1.943-7.142-3.394-12.493-4.351-16.057l-2.175-8.027l-1.969-1.137
							L477.48,441.309z"/>
						<path fill="#F2F2F2" d="M462.668,422.254l6.11-0.563v-2.682l-10.253,0.853l10.253,12.719v-2.735L462.668,422.254z"/>
					</g>
				</g>
			</g>
		</g>
	</g>
	<g>
		<path fill="#F2F2F2" d="M251.189,652.012c11.703,6.758,30.739,6.723,42.517-0.077c11.777-6.799,11.837-17.789,0.133-24.547
			c-11.703-6.758-30.738-6.723-42.516,0.077C239.545,634.265,239.485,645.255,251.189,652.012z"/>
		
			<ellipse transform="matrix(1 -0.0054 0.0054 1 -3.4354 1.4789)" fill="#C4C4C4" cx="272.512" cy="637.771" rx="25.624" ry="14.794"/>
		<path fill="#D9D9D9" d="M247.757,589.505h49.5v46.385c0.136,3.771-2.293,7.575-7.293,10.463
			c-9.697,5.598-25.372,5.627-35.009,0.063c-4.997-2.886-7.383-6.708-7.176-10.501L247.757,589.505z"/>
		<g>
			
				<ellipse transform="matrix(1 -0.0054 0.0054 1 -3.1907 1.4835)" fill="#F2F2F2" cx="272.513" cy="590.317" rx="25.624" ry="14.793"/>
			<path fill="#FFD166" d="M267.146,604.814c0,0,0.004,0.004,0.007,0c8.177,0.978,17.046-0.376,23.423-4.055
				c1.135-0.655,2.145-1.357,3.024-2.096l-4.352-2.416l-21.174,5.417L267.146,604.814z"/>
			<path fill="#999999" d="M252.327,594.859c1.042,1.574,2.662,3.052,4.86,4.319c8.413,4.857,22.093,4.835,30.56-0.054
				c2.245-1.294,3.896-2.799,4.954-4.406c2.939-4.453,1.321-9.666-4.86-13.236c-8.413-4.856-22.093-4.835-30.56,0.054
				C251.027,585.149,249.37,590.403,252.327,594.859z"/>
			<path fill="#FFAD66" d="M252.327,594.859c1.042,1.574,2.662,3.052,4.86,4.319c8.413,4.857,22.093,4.835,30.56-0.054
				c2.245-1.294,3.896-2.799,4.954-4.406c-1.042-1.574-2.662-3.052-4.86-4.319c-8.413-4.856-22.093-4.835-30.56,0.054
				C255.037,591.747,253.388,593.253,252.327,594.859z"/>
			<path fill="#D9D9D9" d="M287.842,583.763c-8.413-4.856-22.095-4.832-30.56,0.056c-3.75,2.165-5.844,4.921-6.285,7.741
				c-0.572-3.576,1.524-7.275,6.285-10.023c8.465-4.887,22.148-4.912,30.56-0.055c4.686,2.705,6.745,6.354,6.189,9.902
				C293.587,588.599,291.524,585.889,287.842,583.763z"/>
		</g>
		<path fill="#FFAD66" d="M267.764,648.639c0.059,0.011,0.118,0.017,0.177,0.017c0.471,0.014,0.927-0.257,1.267-0.595
			c1.037-1.016,1.351-2.594,2.347-3.654c0.808-0.867,1.991-1.305,2.813-2.162c0.61-0.64,0.979-1.473,1.581-2.12
			c0.602-0.644,1.611-1.075,2.363-0.615c0.528,0.32,0.925,1.04,1.531,0.927c0.181-0.036,0.338-0.147,0.478-0.265
			c0.957-0.814,1.36-2.124,1.444-3.38c0.083-1.257-0.101-2.513-0.087-3.773c0.011-0.605,0.065-1.225,0.292-1.785
			c0.55-1.361,1.998-2.19,2.598-3.53c0.326-0.73,0.413-1.622,1.03-2.13c0.557-0.453,1.348-0.433,2.062-0.391
			c0.19,0.014,0.393,0.028,0.55,0.14c0.201,0.146,0.268,0.407,0.32,0.647c0.989,4.762,0.014,9.934,1.971,14.39
			c0.33,0.755,0.817,1.538,1.612,1.771c0.316,0.095,0.676,0.034,0.961-0.122c0.998-0.54,0.532-2.28,0.532-3.243v-40.099
			c-0.88,0.738-1.89,1.44-3.024,2.096c-6.377,3.683-15.25,5.036-23.43,4.055v37.927
			C267.146,643.838,266.538,648.412,267.764,648.639z"/>
	</g>
	<g>
		
			<ellipse transform="matrix(1 -0.0054 0.0054 1 -3.2934 1.1248)" fill="#F2F2F2" cx="206.325" cy="609.513" rx="30.064" ry="17.356"/>
		
			<ellipse transform="matrix(1 -0.0054 0.0054 1 -3.2852 1.1255)" fill="#C4C4C4" cx="206.325" cy="607.599" rx="25.623" ry="14.793"/>
		<path fill="#D9D9D9" d="M181.566,559.334h49.5v46.385c0.136,3.771-2.293,7.575-7.293,10.463
			c-9.697,5.599-25.372,5.628-35.009,0.063c-4.997-2.885-7.383-6.707-7.176-10.5L181.566,559.334z"/>
		<g>
			
				<ellipse transform="matrix(1 -0.0054 0.0054 1 -3.0284 1.1248)" fill="#F2F2F2" cx="206.327" cy="560.145" rx="25.624" ry="14.793"/>
			<path fill="#8482FF" d="M200.957,574.644c0,0,0.004,0.004,0.008,0c8.176,0.979,17.045-0.375,23.422-4.055
				c1.135-0.655,2.145-1.357,3.024-2.096l-4.351-2.416l-21.174,5.418L200.957,574.644z"/>
			<path fill="#999999" d="M186.139,564.689c1.041,1.574,2.662,3.051,4.86,4.319c8.412,4.856,22.092,4.835,30.56-0.054
				c2.245-1.294,3.895-2.8,4.953-4.406c2.94-4.453,1.322-9.666-4.86-13.236c-8.412-4.857-22.092-4.835-30.56,0.054
				C184.837,554.98,183.18,560.232,186.139,564.689z"/>
			<path fill="#4D4BB7" d="M186.139,564.689c1.041,1.574,2.662,3.051,4.86,4.319c8.412,4.856,22.092,4.835,30.56-0.054
				c2.245-1.294,3.895-2.8,4.953-4.406c-1.041-1.574-2.662-3.052-4.86-4.32c-8.412-4.856-22.092-4.834-30.56,0.055
				C188.847,561.576,187.197,563.082,186.139,564.689z"/>
			<path fill="#D9D9D9" d="M221.652,553.594c-8.412-4.856-22.094-4.832-30.56,0.055c-3.75,2.166-5.843,4.922-6.285,7.742
				c-0.571-3.576,1.525-7.275,6.285-10.023c8.466-4.888,22.148-4.912,30.56-0.055c4.686,2.705,6.746,6.354,6.19,9.901
				C227.396,558.429,225.336,555.72,221.652,553.594z"/>
		</g>
		<path fill="#4D4BB7" d="M201.573,618.468c0.059,0.012,0.118,0.018,0.177,0.018c0.471,0.014,0.927-0.257,1.268-0.595
			c1.036-1.017,1.35-2.594,2.346-3.655c0.809-0.866,1.992-1.305,2.813-2.161c0.609-0.641,0.978-1.473,1.58-2.12
			c0.602-0.644,1.611-1.076,2.363-0.615c0.528,0.32,0.926,1.04,1.531,0.926c0.181-0.034,0.338-0.146,0.478-0.264
			c0.957-0.814,1.361-2.124,1.444-3.38c0.083-1.257-0.101-2.513-0.087-3.773c0.011-0.606,0.065-1.226,0.292-1.786
			c0.55-1.361,1.998-2.189,2.597-3.53c0.326-0.73,0.413-1.621,1.03-2.129c0.557-0.453,1.347-0.433,2.062-0.391
			c0.19,0.013,0.393,0.028,0.55,0.14c0.201,0.146,0.268,0.407,0.32,0.647c0.989,4.761,0.014,9.934,1.971,14.389
			c0.33,0.756,0.817,1.539,1.612,1.772c0.316,0.095,0.675,0.036,0.96-0.121c0.999-0.54,0.533-2.28,0.533-3.243v-40.099
			c-0.882,0.738-1.891,1.44-3.024,2.096c-6.377,3.683-15.25,5.037-23.431,4.055v37.927
			C200.957,613.668,200.348,618.241,201.573,618.468z"/>
	</g>
	<g>
		<path fill="#F2F2F2" d="M66.781,606.448c11.704,6.758,30.739,6.724,42.517-0.077c11.777-6.799,11.838-17.789,0.134-24.547
			s-30.738-6.723-42.517,0.077C55.138,588.702,55.078,599.692,66.781,606.448z"/>
		<path fill="#C4C4C4" d="M69.932,602.717c9.976,5.759,26.198,5.729,36.236-0.066s10.089-15.162,0.114-20.921
			c-9.976-5.759-26.198-5.729-36.236,0.065C60.008,587.589,59.957,596.958,69.932,602.717z"/>
		<path fill="#D9D9D9" d="M63.349,543.941h49.5v46.385c0.136,3.771-2.292,7.575-7.292,10.463
			c-9.698,5.599-25.373,5.628-35.009,0.063c-4.998-2.885-7.384-6.708-7.177-10.501L63.349,543.941z"/>
		<g>
			
				<ellipse transform="matrix(1 -0.0054 0.0054 1 -2.9469 0.4849)" fill="#F2F2F2" cx="88.111" cy="544.751" rx="25.623" ry="14.793"/>
			<path fill="#737373" d="M82.739,559.251c0,0,0.004,0.004,0.008,0c8.177,0.978,17.045-0.376,23.423-4.055
				c1.134-0.655,2.145-1.357,3.024-2.096l-4.352-2.416l-21.174,5.417L82.739,559.251z"/>
			<path fill="#999999" d="M67.92,549.296c1.041,1.574,2.662,3.052,4.86,4.319c8.412,4.857,22.092,4.835,30.56-0.054
				c2.244-1.294,3.895-2.799,4.953-4.406c2.94-4.453,1.322-9.666-4.86-13.236c-8.412-4.856-22.092-4.835-30.56,0.054
				C66.619,539.588,64.962,544.84,67.92,549.296z"/>
			<path fill="#1F2125" d="M67.92,549.296c1.041,1.574,2.662,3.052,4.86,4.319c8.412,4.857,22.092,4.835,30.56-0.054
				c2.244-1.294,3.895-2.799,4.953-4.406c-1.041-1.574-2.662-3.052-4.86-4.319c-8.412-4.856-22.092-4.835-30.56,0.054
				C70.629,546.184,68.979,547.69,67.92,549.296z"/>
			<path fill="#D9D9D9" d="M103.436,538.2c-8.413-4.856-22.095-4.832-30.561,0.056c-3.75,2.165-5.843,4.922-6.285,7.741
				c-0.571-3.576,1.526-7.275,6.285-10.022c8.466-4.888,22.148-4.912,30.561-0.056c4.685,2.705,6.745,6.355,6.189,9.902
				C109.18,543.035,107.117,540.327,103.436,538.2z"/>
		</g>
		<path fill="#1F2125" d="M83.355,603.075c0.059,0.01,0.118,0.017,0.178,0.017c0.47,0.014,0.926-0.257,1.267-0.595
			c1.036-1.016,1.35-2.594,2.347-3.654c0.808-0.867,1.991-1.305,2.813-2.162c0.609-0.64,0.978-1.473,1.58-2.12
			c0.603-0.644,1.612-1.075,2.363-0.615c0.529,0.32,0.926,1.04,1.531,0.926c0.182-0.035,0.338-0.146,0.478-0.265
			c0.957-0.814,1.361-2.124,1.444-3.38c0.083-1.257-0.101-2.513-0.087-3.773c0.011-0.605,0.066-1.226,0.293-1.786
			c0.549-1.36,1.997-2.189,2.596-3.529c0.327-0.731,0.414-1.622,1.03-2.13c0.558-0.453,1.347-0.433,2.061-0.391
			c0.19,0.014,0.393,0.028,0.55,0.14c0.201,0.146,0.268,0.407,0.32,0.647c0.989,4.762,0.014,9.934,1.971,14.39
			c0.33,0.755,0.817,1.538,1.612,1.771c0.316,0.095,0.675,0.035,0.96-0.122c0.999-0.54,0.533-2.28,0.533-3.243v-40.099
			c-0.881,0.738-1.891,1.44-3.024,2.096c-6.378,3.683-15.25,5.037-23.431,4.055v37.927C82.739,598.274,82.13,602.849,83.355,603.075
			z"/>
	</g>
	<g>
		<g>
			<path fill="#F2F2F2" d="M482.529,578.873c1.607,0.929,4.19,0.929,5.789,0l42.096-24.463c1.578-0.917,1.569-2.413-0.041-3.342
				l-42.371-24.463c-1.587-0.917-4.19-0.929-5.768-0.012l-42.097,24.463c-1.599,0.929-1.569,2.437,0.019,3.354L482.529,578.873z"/>
		</g>
		<path fill="#FFAD66" d="M482.763,575.125l-38.438-22.192c-0.728-0.42-1.095-0.977-1.093-1.533l0.021-3.879
			c-0.001,0.557,0.366,1.113,1.093,1.532l38.438,22.192c1.459,0.842,3.802,0.842,5.252,0l38.188-22.192
			c0.709-0.411,1.065-0.952,1.066-1.496l-0.021,3.879c-0.001,0.544-0.357,1.083-1.066,1.496l-38.188,22.192
			C486.564,575.969,484.222,575.969,482.763,575.125z"/>
		<g>
			<path fill="#FFD166" d="M482.783,571.246c1.459,0.842,3.802,0.842,5.252,0l38.188-22.192c1.432-0.832,1.424-2.188-0.035-3.031
				l-38.438-22.191c-1.44-0.832-3.801-0.844-5.232-0.012l-38.188,22.193c-1.45,0.842-1.424,2.21,0.018,3.041L482.783,571.246z"/>
		</g>
		<g>
			<path fill="#FFFFFF" d="M478.008,540.034c-4.229-1.047-8.131-1.594-11.705-1.646l-1.205,2.453
				c3.4,0.152,6.923,0.704,10.568,1.659c3.646,0.953,7.089,2.365,10.332,4.238c3.243,1.871,5.697,3.864,7.36,5.976
				c1.665,2.11,2.616,4.141,2.854,6.091l4.287-0.675c-0.113-2.077-1.075-4.338-2.887-6.778s-4.477-4.676-7.989-6.705
				C486.107,542.618,482.236,541.081,478.008,540.034z"/>
		</g>
	</g>
	<g>
		<g>
			<g enable-background="new    ">
				<g>
					<path d="M409.422,243.299l8.9,5.172c-0.03-0.017-0.059-0.039-0.086-0.066l-8.9-5.173
						C409.363,243.259,409.391,243.28,409.422,243.299z"/>
				</g>
				<g>
					<path d="M430.1,223.481l-8.9-5.173c-0.095-0.055-0.213-0.073-0.35-0.045l8.901,5.173
						C429.887,223.409,430.006,223.427,430.1,223.481z"/>
				</g>
				<g>
					<polygon points="416.34,246.505 407.438,241.332 409.336,243.232 418.236,248.405 					"/>
				</g>
				<g>
					<polygon points="429.751,223.436 420.85,218.263 417.787,218.89 426.689,224.063 					"/>
				</g>
				<g>
					<path d="M396.564,253.548l8.901,5.173c-0.154-0.089-0.25-0.282-0.25-0.557l-8.901-5.172
						C396.314,253.267,396.41,253.458,396.564,253.548z"/>
				</g>
				<g>
					<polygon points="405.205,254.478 396.305,249.305 396.314,252.992 405.216,258.164 					"/>
				</g>
				<g>
					<path d="M428.42,209.492l-8.9-5.172c-0.16-0.093-0.381-0.074-0.611,0.06c-0.09,0.052-0.182,0.122-0.271,0.207l8.901,5.173
						c0.091-0.086,0.181-0.156,0.271-0.207C428.039,209.418,428.26,209.399,428.42,209.492z"/>
				</g>
				<g>
					<polygon points="427.537,209.759 418.636,204.586 415.587,207.487 424.488,212.66 					"/>
				</g>
				<g>
					<path d="M417.67,216.482l-8.9-5.172c2.281,1.325,3.696,4.143,3.707,8.149c0.023,8.075-5.654,17.908-12.682,21.964l8.9,5.173
						c7.027-4.056,12.705-13.891,12.682-21.965C421.367,220.625,419.951,217.808,417.67,216.482z"/>
				</g>
				<g>
					<path d="M390.748,242.307l8.901,5.173c2.312,1.344,5.514,1.155,9.046-0.884l-8.9-5.173
						C396.262,243.463,393.062,243.651,390.748,242.307z"/>
				</g>
				<g>
					<path d="M384.695,253.998l8.901,5.173c-0.294-0.17-0.347-0.683-0.092-1.238l-8.901-5.172
						C384.35,253.313,384.402,253.826,384.695,253.998z"/>
				</g>
				<g>
					<polygon points="395.391,253.853 386.488,248.681 384.603,252.759 393.504,257.933 					"/>
				</g>
				<g>
					<path d="M392.822,251.306l-8.901-5.173c0.718,1.044,1.58,1.891,2.569,2.547l8.9,5.172
						C394.402,253.198,393.54,252.35,392.822,251.306z"/>
				</g>
				<g>
					<polygon points="418.113,204.566 409.213,199.394 407.331,203.47 416.233,208.643 					"/>
				</g>
				<path fill="#666666" d="M409.905,198.582c0.177-0.102,0.354-0.142,0.511-0.102l4.295,1.101c0.039,0.01,0.074,0.026,0.107,0.044
					l8.9,5.173c-0.033-0.02-0.068-0.034-0.107-0.044l-4.295-1.101c-0.155-0.041-0.334-0.001-0.51,0.102
					c-0.266,0.153-0.525,0.444-0.693,0.812l-8.9-5.173C409.38,199.026,409.641,198.735,409.905,198.582z"/>
				<g>
					<path d="M379.994,249.295l8.9,5.173c-0.092-0.054-0.164-0.145-0.206-0.271l-8.901-5.173
						C379.829,249.15,379.901,249.241,379.994,249.295z"/>
				</g>
				<g>
					<path d="M416.233,208.643l-8.901-5.173c-1.297,0.06-2.676,0.332-4.122,0.842l8.901,5.172
						C413.557,208.974,414.935,208.702,416.233,208.643z"/>
				</g>
				<g>
					<polygon points="387.029,249.354 378.129,244.181 379.786,249.023 388.688,254.197 					"/>
				</g>
				<path fill="#666666" d="M378.685,242.607l3.056-2.904l8.9,5.172l-3.055,2.905c-0.455,0.435-0.701,1.133-0.557,1.574l-8.9-5.172
					C377.983,243.741,378.229,243.042,378.685,242.607z"/>
				<g>
					<path d="M390.626,239.899l-8.901-5.172c-0.084,0.864-0.127,1.725-0.126,2.558c0.003,0.847,0.052,1.655,0.14,2.418l8.9,5.173
						c-0.088-0.764-0.137-1.572-0.139-2.418C390.498,241.624,390.541,240.764,390.626,239.899z"/>
				</g>
				<g>
					<path d="M405.09,213.538l-8.9-5.172c-1.445,1.159-2.82,2.476-4.121,3.917l8.901,5.173
						C402.27,216.015,403.645,214.697,405.09,213.538z"/>
				</g>
				<g>
					<polygon points="405.079,209.846 396.178,204.672 396.188,208.366 405.09,213.538 					"/>
				</g>
				<path fill="#666666" d="M397.039,203.181l5.292-3.056c0.241-0.14,0.458-0.152,0.614-0.061l8.9,5.172
					c-0.156-0.09-0.374-0.078-0.615,0.061l-5.293,3.057c-0.477,0.276-0.862,0.942-0.861,1.492l-8.9-5.173
					C396.176,204.123,396.561,203.456,397.039,203.181z"/>
				<g>
					<path d="M395.311,225.475l-8.901-5.172c-0.981,1.786-1.836,3.631-2.546,5.5l8.9,5.173
						C393.475,229.106,394.328,227.262,395.311,225.475z"/>
				</g>
				<g>
					<path d="M378.314,235.309l8.901,5.172c-0.222-0.128-0.313-0.458-0.213-0.882l-8.901-5.173
						C378.002,234.85,378.094,235.18,378.314,235.309z"/>
				</g>
				<g>
					<polygon points="388.627,232.859 379.727,227.687 378.101,234.426 387.002,239.599 					"/>
				</g>
				<path fill="#666666" d="M380.539,226.531c0.09-0.052,0.18-0.088,0.268-0.105l3.055-0.624l8.902,5.172l-3.057,0.625
					c-0.09,0.017-0.18,0.054-0.269,0.104c-0.36,0.208-0.698,0.669-0.813,1.155l-8.901-5.172
					C379.84,227.201,380.178,226.739,380.539,226.531z"/>
				<g>
					<polygon points="393.406,223.583 384.506,218.411 386.409,220.302 395.311,225.475 					"/>
				</g>
				<g>
					<path fill="#333333" d="M387.586,247.78c-0.455,0.435-0.701,1.133-0.557,1.573l1.659,4.843
						c0.117,0.349,0.458,0.422,0.819,0.213c0.089-0.05,0.178-0.119,0.266-0.204l3.049-2.901c0.718,1.044,1.58,1.893,2.568,2.547
						l-1.886,4.078c-0.282,0.613-0.188,1.175,0.193,1.281l4.301,1.097c0.151,0.042,0.328,0.001,0.505-0.101
						c0.266-0.153,0.529-0.448,0.699-0.813l1.875-4.079c1.303-0.056,2.682-0.329,4.128-0.838l0.011,3.687
						c0.002,0.556,0.389,0.77,0.867,0.495l5.293-3.056c0.479-0.275,0.862-0.936,0.861-1.491l-0.01-3.687
						c1.443-1.159,2.82-2.476,4.113-3.919l1.897,1.901c0.171,0.169,0.434,0.161,0.698,0.006c0.176-0.102,0.354-0.266,0.506-0.483
						l4.275-6.048c0.385-0.547,0.475-1.215,0.192-1.503l-1.903-1.891c0.982-1.793,1.836-3.632,2.54-5.497l3.056-0.625
						c0.09-0.018,0.181-0.054,0.269-0.105c0.364-0.21,0.704-0.677,0.819-1.159l1.625-6.738c0.143-0.606-0.106-1.018-0.562-0.928
						l-3.062,0.628c0.078-0.86,0.127-1.725,0.126-2.572c-0.003-0.833-0.056-1.638-0.14-2.405l3.055-2.905
						c0.455-0.435,0.701-1.133,0.555-1.573l-1.656-4.843c-0.117-0.353-0.456-0.424-0.82-0.213c-0.09,0.052-0.182,0.122-0.271,0.207
						l-3.049,2.901c-0.712-1.046-1.574-1.902-2.563-2.551l1.887-4.078c0.279-0.613,0.187-1.175-0.2-1.277l-4.295-1.101
						c-0.155-0.04-0.334-0.001-0.511,0.102c-0.264,0.153-0.525,0.444-0.692,0.812l-1.88,4.076c-1.299,0.06-2.676,0.332-4.123,0.842
						l-0.011-3.693c-0.001-0.55-0.39-0.77-0.866-0.493l-5.293,3.056c-0.477,0.277-0.863,0.942-0.86,1.492l0.011,3.693
						c-1.443,1.159-2.82,2.476-4.119,3.917l-1.893-1.897c-0.17-0.173-0.434-0.162-0.697-0.009c-0.178,0.102-0.355,0.268-0.508,0.486
						l-4.279,6.052c-0.38,0.543-0.471,1.213-0.187,1.5l1.903,1.891c-0.982,1.787-1.836,3.632-2.546,5.501l-3.057,0.624
						c-0.089,0.017-0.179,0.054-0.269,0.104c-0.36,0.208-0.698,0.669-0.813,1.156l-1.625,6.738
						c-0.143,0.606,0.106,1.019,0.562,0.928l3.062-0.627c-0.084,0.864-0.129,1.725-0.126,2.558c0.003,0.847,0.052,1.655,0.14,2.419
						L387.586,247.78z M408.695,246.596c-7.021,4.054-12.735,0.797-12.758-7.278c-0.023-8.067,5.654-17.895,12.675-21.949
						c7.027-4.057,12.742-0.807,12.765,7.261C421.4,232.705,415.723,242.539,408.695,246.596L408.695,246.596z"/>
				</g>
				<path fill="#666666" d="M384.691,216.912l4.281-6.051c0.151-0.218,0.328-0.383,0.506-0.486c0.223-0.128,0.443-0.156,0.609-0.06
					l8.901,5.172c-0.165-0.097-0.387-0.068-0.609,0.06c-0.177,0.102-0.354,0.268-0.507,0.486l-4.28,6.052
					c-0.38,0.543-0.47,1.213-0.187,1.499l-8.9-5.172C384.222,218.125,384.313,217.455,384.691,216.912z"/>
			</g>
		</g>
		<g>
			<g enable-background="new    ">
				<g>
					<path fill="#4D4BB7" d="M425.066,180.681l-10.598-6.159c-0.027-0.016-0.059-0.029-0.092-0.038l10.598,6.159
						C425.01,180.653,425.039,180.666,425.066,180.681z"/>
				</g>
				<g>
					<path fill="#4D4BB7" d="M401.022,193.87l10.598,6.159c-0.079-0.045-0.14-0.123-0.177-0.23l-10.598-6.159
						C400.883,193.748,400.944,193.825,401.022,193.87z"/>
				</g>
				<g>
					<polygon fill="#4D4BB7" points="424.977,180.645 414.377,174.485 412.157,173.913 422.756,180.072 					"/>
				</g>
				<g>
					<polygon fill="#4D4BB7" points="410.592,197.291 399.994,191.133 400.846,193.64 411.443,199.798 					"/>
				</g>
				<g>
					<path fill="#4D4BB7" d="M427.131,166.873l-10.598-6.159c-0.135-0.079-0.323-0.065-0.531,0.055l10.598,6.159
						C426.807,166.809,426.996,166.795,427.131,166.873z"/>
				</g>
				<g>
					<polygon fill="#4D4BB7" points="426.6,166.928 416,160.771 413.266,162.35 423.862,168.509 					"/>
				</g>
				<g>
					<path fill="#4D4BB7" d="M389.945,198.659l10.598,6.159c-0.188-0.109-0.266-0.389-0.18-0.752l-10.598-6.159
						C389.68,198.27,389.76,198.55,389.945,198.659z"/>
				</g>
				<g>
					<polygon fill="#4D4BB7" points="401.199,200.592 390.6,194.433 389.766,197.907 400.363,204.064 					"/>
				</g>
				<g>
					<path fill="#4D4BB7" d="M390.422,187.761l10.598,6.159c1.97,1.146,4.697,0.984,7.705-0.752l-10.597-6.158
						C395.119,188.745,392.393,188.907,390.422,187.761z"/>
				</g>
				<g>
					<path fill="#4D4BB7" d="M416.369,167.498l-10.598-6.159c1.946,1.131,3.153,3.536,3.163,6.954
						c0.02,6.879-4.82,15.261-10.806,18.717l10.598,6.158c5.986-3.457,10.826-11.839,10.807-18.718
						C419.521,171.032,418.315,168.628,416.369,167.498z"/>
				</g>
				<g>
					<path fill="#9996FF" d="M422.345,158.008l-10.598-6.159c-0.142-0.083-0.333-0.06-0.526,0.052c-0.148,0.085-0.3,0.225-0.43,0.41
						l10.598,6.159c0.13-0.185,0.28-0.323,0.43-0.41C422.012,157.948,422.203,157.925,422.345,158.008z"/>
				</g>
				<g>
					<path fill="#4D4BB7" d="M384.445,197.25l10.597,6.159c-0.025-0.015-0.052-0.035-0.073-0.057l-10.598-6.159
						C384.395,197.215,384.419,197.233,384.445,197.25z"/>
				</g>
				<g>
					<polygon fill="#4D4BB7" points="421.389,158.469 410.791,152.31 408.582,155.441 419.18,161.599 					"/>
				</g>
				<g>
					<path fill="#4D4BB7" d="M419.18,161.599l-10.598-6.158c-0.908-0.439-1.912-0.704-2.99-0.776l10.598,6.159
						C417.268,160.896,418.271,161.161,419.18,161.599z"/>
				</g>
				<g>
					<polygon fill="#4D4BB7" points="392.305,200.684 381.705,194.525 384.371,197.192 394.97,203.351 					"/>
				</g>
				<path fill="#9996FF" d="M381.867,193.255l2.209-3.131l10.598,6.159l-2.211,3.131c-0.328,0.466-0.401,1.037-0.162,1.269
					l-10.597-6.159C381.465,194.293,381.539,193.722,381.867,193.255z"/>
				<g>
					<path fill="#4D4BB7" d="M393.524,192.907l-10.598-6.159c0.243,1.28,0.632,2.405,1.149,3.377l10.598,6.159
						C394.157,195.312,393.77,194.187,393.524,192.907z"/>
				</g>
				<g>
					<polygon fill="#4D4BB7" points="411.326,158.51 400.729,152.351 399.895,155.832 410.491,161.991 					"/>
				</g>
				<path fill="#9996FF" d="M401.422,151.361c0.076-0.044,0.154-0.074,0.23-0.089l4.298-0.879c0.114-0.021,0.213-0.006,0.292,0.04
					l10.598,6.158c-0.079-0.046-0.178-0.063-0.292-0.041l-4.298,0.879c-0.076,0.015-0.154,0.045-0.23,0.089
					c-0.309,0.178-0.596,0.572-0.693,0.989l-10.598-6.158C400.826,151.933,401.114,151.539,401.422,151.361z"/>
				<g>
					<path fill="#4D4BB7" d="M379.661,188.381l10.598,6.159c-0.132-0.077-0.213-0.239-0.213-0.469l-10.598-6.159
						C379.448,188.142,379.53,188.304,379.661,188.381z"/>
				</g>
				<g>
					<path fill="#4D4BB7" d="M410.491,161.991l-10.597-6.159c-0.611,0.273-1.223,0.57-1.853,0.935
						c-0.624,0.36-1.233,0.768-1.845,1.198l10.598,6.159c0.609-0.431,1.221-0.838,1.845-1.198
						C409.271,162.561,409.882,162.264,410.491,161.991z"/>
				</g>
				<g>
					<path fill="#4D4BB7" d="M394.632,181.343l-10.597-6.159c-0.511,1.566-0.892,3.135-1.128,4.692l10.598,6.159
						C393.74,184.478,394.121,182.91,394.632,181.343z"/>
				</g>
				<g>
					<polygon fill="#4D4BB7" points="390.031,188.886 379.434,182.727 379.448,187.912 390.046,194.071 					"/>
				</g>
				<path fill="#9996FF" d="M380.172,181.456l2.735-1.579l10.598,6.159l-2.735,1.579c-0.412,0.237-0.74,0.798-0.738,1.271
					l-10.598-6.159C379.433,182.254,379.76,181.695,380.172,181.456z"/>
				<g>
					<path fill="#4D4BB7" d="M401.111,169.529l-10.598-6.159c-1.075,1.314-2.074,2.736-2.977,4.221l10.598,6.159
						C399.036,172.266,400.036,170.845,401.111,169.529z"/>
				</g>
				<g>
					<polygon fill="#4D4BB7" points="400.259,167.03 389.66,160.872 390.512,163.372 401.111,169.529 					"/>
				</g>
				<path fill="#9996FF" d="M390.131,159.527l4.288-4.079c0.077-0.074,0.154-0.133,0.231-0.177c0.195-0.113,0.381-0.128,0.518-0.05
					l10.598,6.158c-0.136-0.08-0.323-0.063-0.518,0.05c-0.077,0.044-0.156,0.103-0.231,0.178l-4.288,4.078
					c-0.383,0.371-0.595,0.967-0.47,1.345l-10.598-6.159C389.535,160.494,389.747,159.898,390.131,159.527z"/>
				<g>
					<polygon fill="#4D4BB7" points="398.134,173.75 387.537,167.591 385.316,167.018 395.914,173.177 					"/>
				</g>
				<g>
					<path fill="#6865F7" d="M390.77,187.615c-0.412,0.237-0.74,0.798-0.738,1.271l0.015,5.185c0.001,0.465,0.331,0.653,0.743,0.415
						l2.735-1.58c0.243,1.28,0.632,2.405,1.149,3.377l-2.209,3.131c-0.328,0.467-0.403,1.037-0.162,1.27l2.666,2.667
						c0.146,0.145,0.371,0.137,0.6,0.005c0.149-0.085,0.3-0.225,0.43-0.41l2.209-3.129c0.908,0.438,1.912,0.704,2.99,0.776
						l-0.834,3.474c-0.123,0.521,0.092,0.87,0.476,0.791l4.298-0.872c0.074-0.016,0.148-0.045,0.224-0.088
						c0.312-0.18,0.603-0.576,0.7-0.989l0.835-3.481c0.61-0.273,1.22-0.579,1.845-0.939c0.631-0.365,1.24-0.764,1.85-1.195
						l0.853,2.508c0.101,0.298,0.394,0.358,0.704,0.179c0.074-0.043,0.148-0.099,0.224-0.169l4.289-4.086
						c0.383-0.363,0.595-0.958,0.47-1.336l-0.852-2.5c1.074-1.314,2.073-2.736,2.976-4.22l2.22,0.573
						c0.131,0.034,0.281-0.001,0.432-0.087c0.228-0.131,0.453-0.383,0.598-0.696l2.643-5.732c0.238-0.509,0.161-0.994-0.168-1.08
						l-2.221-0.573c0.51-1.565,0.891-3.134,1.126-4.691l2.735-1.579c0.412-0.237,0.74-0.805,0.738-1.271l-0.015-5.185
						c-0.001-0.473-0.331-0.652-0.743-0.415l-2.735,1.58c-0.243-1.279-0.632-2.405-1.149-3.377l2.209-3.131
						c0.328-0.466,0.402-1.037,0.162-1.277l-2.666-2.66c-0.146-0.145-0.371-0.137-0.6-0.005c-0.149,0.085-0.3,0.225-0.43,0.41
						l-2.209,3.129c-0.908-0.438-1.912-0.704-2.99-0.774l0.834-3.474c0.123-0.521-0.092-0.871-0.476-0.798l-4.298,0.879
						c-0.076,0.015-0.154,0.045-0.23,0.089c-0.309,0.178-0.596,0.572-0.693,0.989l-0.835,3.481c-0.61,0.273-1.22,0.57-1.852,0.935
						c-0.624,0.36-1.233,0.768-1.845,1.198l-0.852-2.508c-0.1-0.303-0.389-0.365-0.697-0.188c-0.076,0.044-0.154,0.103-0.23,0.178
						l-4.288,4.078c-0.384,0.371-0.595,0.967-0.47,1.345l0.852,2.5c-1.074,1.314-2.073,2.735-2.976,4.22l-2.22-0.573
						c-0.131-0.034-0.282,0.001-0.432,0.087c-0.228,0.132-0.453,0.383-0.598,0.696l-2.643,5.725
						c-0.238,0.517-0.161,1.001,0.168,1.087l2.221,0.573c-0.51,1.565-0.891,3.134-1.127,4.691L390.77,187.615z M408.725,193.167
						c-5.979,3.453-10.85,0.677-10.869-6.202s4.819-15.261,10.799-18.714c5.986-3.457,10.857-0.681,10.877,6.198
						S414.712,189.711,408.725,193.167L408.725,193.167z"/>
				</g>
				<path fill="#9996FF" d="M381.646,173.526l2.642-5.725c0.145-0.312,0.37-0.564,0.597-0.697c0.15-0.085,0.301-0.121,0.432-0.087
					l10.598,6.159c-0.131-0.034-0.282,0.001-0.432,0.087c-0.228,0.132-0.453,0.383-0.598,0.697l-2.643,5.725
					c-0.215,0.465-0.174,0.904,0.078,1.049l-10.598-6.159C381.473,174.429,381.432,173.991,381.646,173.526z"/>
			</g>
		</g>
	</g>
</svg>
